<?xml version="1.0" encoding="utf-8"?>
<svg xmlns="http://www.w3.org/2000/svg">
<symbol id="m-perm_contact_calendar" viewBox="0 0 24 24"><path d="M21 3h-3V1h-2v2H8V1H6v2H3v18h18V3zm-9 3c1.66 0 3 1.34 3 3s-1.34 3-3 3-3-1.34-3-3 1.34-3 3-3zm6 12H6v-1c0-2 4-3.1 6-3.1s6 1.1 6 3.1v1z"></path>
</symbol>
<symbol id="m-badge" viewBox="0 0 24 24"><path d="M22 7h-7V2H9v5H2v15h20V7zM9 12c.83 0 1.5.67 1.5 1.5S9.83 15 9 15s-1.5-.67-1.5-1.5S8.17 12 9 12zm3 6H6v-.43c0-.6.36-1.15.92-1.39.64-.28 1.34-.43 2.08-.43s1.44.15 2.08.43c.55.24.92.78.92 1.39V18zm1-9h-2V4h2v5zm5 7.5h-4V15h4v1.5zm0-3h-4V12h4v1.5z"></path>
</symbol>
<symbol id="m-contrast" viewBox="0 0 24 24"><path d="M12 22c5.52 0 10-4.48 10-10S17.52 2 12 2 2 6.48 2 12s4.48 10 10 10zm1-17.93c3.94.49 7 3.85 7 7.93s-3.05 7.44-7 7.93V4.07z"></path>
</symbol>
<symbol id="m-format_align_left" viewBox="0 0 24 24"><path d="M15 15H3v2h12v-2zm0-8H3v2h12V7zM3 13h18v-2H3v2zm0 8h18v-2H3v2zM3 3v2h18V3H3z"></path>
</symbol>
<symbol id="m-medical_services" viewBox="0 0 24 24"><path d="M16 6V2H8v4H2v16h20V6h-6zm-6-2h4v2h-4V4zm6 11h-3v3h-2v-3H8v-2h3v-3h2v3h3v2z"></path>
</symbol>
<symbol id="m-anchor" viewBox="0 0 24 24"><path d="m17 15 1.55 1.55c-.96 1.69-3.33 3.04-5.55 3.37V11h3V9h-3V7.82C14.16 7.4 15 6.3 15 5c0-1.65-1.35-3-3-3S9 3.35 9 5c0 1.3.84 2.4 2 2.82V9H8v2h3v8.92c-2.22-.33-4.59-1.68-5.55-3.37L7 15l-4-3v3c0 3.88 4.92 7 9 7s9-3.12 9-7v-3l-4 3zM12 4c.55 0 1 .45 1 1s-.45 1-1 1-1-.45-1-1 .45-1 1-1z"></path>
</symbol>
<symbol id="m-keyboard_double_arrow_down" viewBox="0 0 24 24"><path d="M18 6.41 16.59 5 12 9.58 7.41 5 6 6.41l6 6z"></path><path d="m18 13-1.41-1.41L12 16.17l-4.59-4.58L6 13l6 6z"></path>
</symbol>
<symbol id="m-keyboard_double_arrow_left" viewBox="0 0 24 24"><path d="M17.59 18 19 16.59 14.42 12 19 7.41 17.59 6l-6 6z"></path><path d="m11 18 1.41-1.41L7.83 12l4.58-4.59L11 6l-6 6z"></path>
</symbol>
<symbol id="m-keyboard_double_arrow_right" viewBox="0 0 24 24"><path d="M6.41 6 5 7.41 9.58 12 5 16.59 6.41 18l6-6z"></path><path d="m13 6-1.41 1.41L16.17 12l-4.58 4.59L13 18l6-6z"></path>
</symbol>
<symbol id="m-keyboard_double_arrow_up" viewBox="0 0 24 24"><path d="M6 17.59 7.41 19 12 14.42 16.59 19 18 17.59l-6-6z"></path><path d="m6 11 1.41 1.41L12 7.83l4.59 4.58L18 11l-6-6z"></path>
</symbol>
<symbol id="m-keyboard_arrow_down" viewBox="0 0 24 24"><path d="M7.41 8.59 12 13.17l4.59-4.58L18 10l-6 6-6-6 1.41-1.41z"></path>
</symbol>
<symbol id="m-keyboard_arrow_left" viewBox="0 0 24 24"><path d="M15.41 16.59 10.83 12l4.58-4.59L14 6l-6 6 6 6 1.41-1.41z"></path>
</symbol>
<symbol id="m-keyboard_arrow_right" viewBox="0 0 24 24"><path d="M8.59 16.59 13.17 12 8.59 7.41 10 6l6 6-6 6-1.41-1.41z"></path>
</symbol>
<symbol id="m-keyboard_arrow_up" viewBox="0 0 24 24"><path d="M7.41 15.41 12 10.83l4.59 4.58L18 14l-6-6-6 6 1.41 1.41z"></path>
</symbol>
<symbol id="m-inventory_2" viewBox="0 0 24 24"><path d="M2 2v6.7h1V22h18V8.7h1V2H2zm13 12H9v-2h6v2zm5-7H4V4h16v3z"></path>
</symbol>
<symbol id="m-arrow_downward" viewBox="0 0 24 24"><path d="m20 12-1.41-1.41L13 16.17V4h-2v12.17l-5.58-5.59L4 12l8 8 8-8z"></path>
</symbol>
<symbol id="m-arrow_back" viewBox="0 0 24 24"><path d="M20 11H7.83l5.59-5.59L12 4l-8 8 8 8 1.41-1.41L7.83 13H20v-2z"></path>
</symbol>
<symbol id="m-arrow_forward" viewBox="0 0 24 24"><path d="m12 4-1.41 1.41L16.17 11H4v2h12.17l-5.58 5.59L12 20l8-8-8-8z"></path>
</symbol>
<symbol id="m-arrow_upward" viewBox="0 0 24 24"><path d="m4 12 1.41 1.41L11 7.83V20h2V7.83l5.58 5.59L20 12l-8-8-8 8z"></path>
</symbol>
<symbol id="m-sync_alt" viewBox="0 0 24 24"><path d="m18 12 4-4-4-4v3H3v2h15zM6 12l-4 4 4 4v-3h15v-2H6z"></path>
</symbol>
<symbol id="m-height" viewBox="0 0 24 24"><path d="M13 6.99h3L12 3 8 6.99h3v10.02H8L12 21l4-3.99h-3z"></path>
</symbol>
<symbol id="m-emergency" viewBox="0 0 24 24"><path d="m20.79 9.23-2-3.46L14 8.54V3h-4v5.54L5.21 5.77l-2 3.46L8 12l-4.79 2.77 2 3.46L10 15.46V21h4v-5.54l4.79 2.77 2-3.46L16 12z"></path>
</symbol>
<symbol id="m-alternate_email" viewBox="0 0 24 24"><path d="M12 2C6.48 2 2 6.48 2 12s4.48 10 10 10h5v-2h-5c-4.34 0-8-3.66-8-8s3.66-8 8-8 8 3.66 8 8v1.43c0 .79-.71 1.57-1.5 1.57s-1.5-.78-1.5-1.57V12c0-2.76-2.24-5-5-5s-5 2.24-5 5 2.24 5 5 5c1.38 0 2.64-.56 3.54-1.47.65.89 1.77 1.47 2.96 1.47 1.97 0 3.5-1.6 3.5-3.57V12c0-5.52-4.48-10-10-10zm0 13c-1.66 0-3-1.34-3-3s1.34-3 3-3 3 1.34 3 3-1.34 3-3 3z"></path>
</symbol>
<symbol id="m-fast_rewind" viewBox="0 0 24 24"><path d="M11 18V6l-8.5 6 8.5 6zm.5-6 8.5 6V6l-8.5 6z"></path>
</symbol>
<symbol id="m-block" viewBox="0 0 24 24"><path d="M12 2C6.48 2 2 6.48 2 12s4.48 10 10 10 10-4.48 10-10S17.52 2 12 2zM4 12c0-4.42 3.58-8 8-8 1.85 0 3.55.63 4.9 1.69L5.69 16.9A7.902 7.902 0 0 1 4 12zm8 8c-1.85 0-3.55-.63-4.9-1.69L18.31 7.1A7.902 7.902 0 0 1 20 12c0 4.42-3.58 8-8 8z"></path>
</symbol>
<symbol id="m-menu" viewBox="0 0 24 24"><path d="M3 18h18v-2H3v2zm0-5h18v-2H3v2zm0-7v2h18V6H3z"></path>
</symbol>
<symbol id="m-bed" viewBox="0 0 24 24"><path d="M21 10V5H3v5H2v9h2v-2h16v2h2v-9h-1zm-8-3h6v3h-6V7zm-8 3V7h6v3H5zm-1 5v-3h16v3H4z"></path>
</symbol>
<symbol id="m-notifications_off" viewBox="0 0 24 24"><path d="M12 22c1.1 0 2-.9 2-2h-4a2 2 0 0 0 2 2zm6-11c0-3.07-1.64-5.64-4.5-6.32V2.5h-3v2.18c-.24.06-.47.15-.69.23L18 13.1V11zM5.41 3.35 4 4.76l2.81 2.81C6.29 8.57 6 9.73 6 11v5l-2 2v1h14.24l1.74 1.74 1.41-1.41L5.41 3.35z"></path>
</symbol>
<symbol id="m-notifications" viewBox="0 0 24 24"><path d="M12 22c1.1 0 2-.9 2-2h-4a2 2 0 0 0 2 2zm6-6v-5c0-3.07-1.64-5.64-4.5-6.32V2.5h-3v2.18C7.63 5.36 6 7.92 6 11v5l-2 2v1h16v-1l-2-2z"></path>
</symbol>
<symbol id="m-cake" viewBox="0 0 24 24"><path d="M12 6a2 2 0 0 0 2-2c0-.38-.1-.73-.29-1.03L12 0l-1.71 2.97c-.19.3-.29.65-.29 1.03 0 1.1.9 2 2 2zm4.53 9.92-1-1-1.08 1.07c-1.3 1.3-3.58 1.31-4.89 0l-1.07-1.07-1.09 1.07C6.75 16.64 5.88 17 4.96 17c-.73 0-1.4-.23-1.96-.61V22h18v-5.61c-.75.51-1.71.75-2.74.52-.66-.14-1.25-.51-1.73-.99zM18 9h-5V7h-2v2H6c-1.66 0-3 1.34-3 3v1.54c0 1.08.88 1.96 1.96 1.96.52 0 1.02-.2 1.38-.57l2.14-2.13 2.13 2.13c.74.74 2.03.74 2.77 0l2.14-2.13 2.13 2.13c.37.37.86.57 1.38.57 1.08 0 1.96-.88 1.96-1.96V12C21 10.34 19.66 9 18 9z"></path>
</symbol>
<symbol id="m-format_bold" viewBox="0 0 24 24"><path d="M15.6 10.79c.97-.67 1.65-1.77 1.65-2.79 0-2.26-1.75-4-4-4H7v14h7.04c2.09 0 3.71-1.7 3.71-3.79 0-1.52-.86-2.82-2.15-3.42zM10 6.5h3c.83 0 1.5.67 1.5 1.5s-.67 1.5-1.5 1.5h-3v-3zm3.5 9H10v-3h3.5c.83 0 1.5.67 1.5 1.5s-.67 1.5-1.5 1.5z"></path>
</symbol>
<symbol id="m-local_library" viewBox="0 0 24 24"><path d="M12 11.55C9.64 9.35 6.48 8 3 8v11c3.48 0 6.64 1.35 9 3.55 2.36-2.19 5.52-3.55 9-3.55V8c-3.48 0-6.64 1.35-9 3.55zM12 8c1.66 0 3-1.34 3-3s-1.34-3-3-3-3 1.34-3 3 1.34 3 3 3z"></path>
</symbol>
<symbol id="m-book" viewBox="0 0 24 24"><path d="M20 2H4v20h16V2zM6 4h5v8l-2.5-1.5L6 12V4z"></path>
</symbol>
<symbol id="m-bookmark" viewBox="0 0 24 24"><path d="M19 3H5v18l7-3 7 3V3z"></path>
</symbol>
<symbol id="m-business_center" viewBox="0 0 24 24"><path d="M10 16v-1H3.01v6H21v-6h-7v1h-4zm12-9h-6V5l-2-2h-4L8 5v2H2v7h8v-2h4v2h8V7zm-8 0h-4V5h4v2z"></path>
</symbol>
<symbol id="m-crisis_alert" viewBox="0 0 24 24"><path d="M14.5 2.5c0 1.06-.75 3.64-1.19 5.04a1.375 1.375 0 0 1-2.62 0C10.25 6.14 9.5 3.56 9.5 2.5a2.5 2.5 0 0 1 5 0zM12 10c-1.1 0-2 .9-2 2s.9 2 2 2 2-.9 2-2-.9-2-2-2zm4.08-4.89c.18-.75.33-1.47.39-2.06A9.996 9.996 0 0 1 22 12c0 5.52-4.48 10-10 10S2 17.52 2 12c0-3.92 2.25-7.31 5.53-8.95.07.59.21 1.32.39 2.06A8.028 8.028 0 0 0 4 12c0 4.42 3.58 8 8 8s8-3.58 8-8c0-2.93-1.58-5.49-3.92-6.89zM18 12c0 3.31-2.69 6-6 6s-6-2.69-6-6c0-2 .98-3.77 2.48-4.86.23.81.65 2.07.65 2.07C8.43 9.93 8 10.92 8 12c0 2.21 1.79 4 4 4s4-1.79 4-4c0-1.08-.43-2.07-1.13-2.79 0 0 .41-1.22.65-2.07A5.998 5.998 0 0 1 18 12z"></path>
</symbol>
<symbol id="m-calendar_month" viewBox="0 0 24 24"><path d="M19 4h-1V2h-2v2H8V2H6v2H5c-1.11 0-1.99.9-1.99 2L3 20a2 2 0 0 0 2 2h14c1.1 0 2-.9 2-2V6c0-1.1-.9-2-2-2zm0 16H5V10h14v10zM9 14H7v-2h2v2zm4 0h-2v-2h2v2zm4 0h-2v-2h2v2zm-8 4H7v-2h2v2zm4 0h-2v-2h2v2zm4 0h-2v-2h2v2z"></path>
</symbol>
<symbol id="m-arrow_drop_down" viewBox="0 0 24 24"><path d="m7 10 5 5 5-5H7z"></path>
</symbol>
<symbol id="m-arrow_left" viewBox="0 0 24 24"><path d="m14 7-5 5 5 5V7z"></path>
</symbol>
<symbol id="m-arrow_right" viewBox="0 0 24 24"><path d="m10 17 5-5-5-5v10z"></path>
</symbol>
<symbol id="m-arrow_drop_up" viewBox="0 0 24 24"><path d="m7 14 5-5 5 5H7z"></path>
</symbol>
<symbol id="m-verified" viewBox="0 0 24 24"><path d="m23 12-2.44-2.79.34-3.69-3.61-.82-1.89-3.2L12 2.96 8.6 1.5 6.71 4.69 3.1 5.5l.34 3.7L1 12l2.44 2.79-.34 3.7 3.61.82L8.6 22.5l3.4-1.47 3.4 1.46 1.89-3.19 3.61-.82-.34-3.69L23 12zm-12.91 4.72-3.8-3.81 1.48-1.48 2.32 2.33 5.85-5.87 1.48 1.48-7.33 7.35z"></path>
</symbol>
<symbol id="m-insert_chart" viewBox="0 0 24 24"><path d="M21 3H3v18h18V3zM9 17H7v-7h2v7zm4 0h-2V7h2v10zm4 0h-2v-4h2v4z"></path>
</symbol>
<symbol id="m-pie_chart" viewBox="0 0 24 24"><path d="M11 2v20c-5.07-.5-9-4.79-9-10s3.93-9.5 9-10zm2.03 0v8.99H22c-.47-4.74-4.24-8.52-8.97-8.99zm0 11.01V22c4.74-.47 8.5-4.25 8.97-8.99h-8.97z"></path>
</symbol>
<symbol id="m-check_circle" viewBox="0 0 24 24"><path d="M12 2C6.48 2 2 6.48 2 12s4.48 10 10 10 10-4.48 10-10S17.52 2 12 2zm-2 15-5-5 1.41-1.41L10 14.17l7.59-7.59L19 8l-9 9z"></path>
</symbol>
<symbol id="m-check_box" viewBox="0 0 24 24"><path d="M21 3H3v18h18V3zM10 17l-5-5 1.41-1.41L10 14.17l7.59-7.59L19 8l-9 9z"></path>
</symbol>
<symbol id="m-check" viewBox="0 0 24 24"><path d="M9 16.17 4.83 12l-1.42 1.41L9 19 21 7l-1.41-1.41L9 16.17z"></path>
</symbol>
<symbol id="m-expand_circle_down" viewBox="0 0 24 24"><path d="M12 2C6.48 2 2 6.48 2 12s4.48 10 10 10 10-4.48 10-10S17.52 2 12 2zm0 13.5L7.5 11l1.42-1.41L12 12.67l3.08-3.08L16.5 11 12 15.5z"></path>
</symbol>
<symbol id="m-expand_more" viewBox="0 0 24 24"><path d="M16.59 8.59 12 13.17 7.41 8.59 6 10l6 6 6-6-1.41-1.41z"></path>
</symbol>
<symbol id="m-chevron_left" viewBox="0 0 24 24"><path d="M15.41 7.41 14 6l-6 6 6 6 1.41-1.41L10.83 12l4.58-4.59z"></path>
</symbol>
<symbol id="m-chevron_right" viewBox="0 0 24 24"><path d="M10 6 8.59 7.41 13.17 12l-4.58 4.59L10 18l6-6-6-6z"></path>
</symbol>
<symbol id="m-expand_less" viewBox="0 0 24 24"><path d="m12 8-6 6 1.41 1.41L12 10.83l4.59 4.58L18 14l-6-6z"></path>
</symbol>
<symbol id="m-lens" viewBox="0 0 24 24"><path d="M12 2C6.48 2 2 6.48 2 12s4.48 10 10 10 10-4.48 10-10S17.52 2 12 2z"></path>
</symbol>
<symbol id="m-code" viewBox="0 0 24 24"><path d="M9.4 16.6 4.8 12l4.6-4.6L8 6l-6 6 6 6 1.4-1.4zm5.2 0 4.6-4.6-4.6-4.6L16 6l6 6-6 6-1.4-1.4z"></path>
</symbol>
<symbol id="m-settings" viewBox="0 0 24 24"><path d="m19.44 12.99-.01.02c.04-.33.08-.67.08-1.01 0-.34-.03-.66-.07-.99l.01.02 2.44-1.92-2.43-4.22-2.87 1.16.01.01c-.52-.4-1.09-.74-1.71-1h.01L14.44 2H9.57l-.44 3.07h.01c-.62.26-1.19.6-1.71 1l.01-.01-2.88-1.17-2.44 4.22 2.44 1.92.01-.02c-.04.33-.07.65-.07.99 0 .34.03.68.08 1.01l-.01-.02-2.1 1.65-.33.26 2.43 4.2 2.88-1.15-.02-.04c.53.41 1.1.75 1.73 1.01h-.03L9.58 22h4.85s.03-.18.06-.42l.38-2.65h-.01c.62-.26 1.2-.6 1.73-1.01l-.02.04 2.88 1.15 2.43-4.2s-.14-.12-.33-.26l-2.11-1.66zM12 15.5c-1.93 0-3.5-1.57-3.5-3.5s1.57-3.5 3.5-3.5 3.5 1.57 3.5 3.5-1.57 3.5-3.5 3.5z"></path>
</symbol>
<symbol id="m-view_column" viewBox="0 0 24 24"><path d="M14.67 5v14H9.33V5h5.34zm1 14H21V5h-5.33v14zm-7.34 0V5H3v14h5.33z"></path>
</symbol>
<symbol id="m-speaker_notes_off" viewBox="0 0 24 24"><path d="M1.27 1.73 0 3l2.01 2.01L2 22l4-4h9l5.73 5.73L22 22.46 1.27 1.73zM8 14H6v-2h2v2zm-2-3V9l2 2H6zm16-9H4.08L10 7.92V6h8v2h-7.92l1 1H18v2h-4.92l6.99 6.99H22V2z"></path>
</symbol>
<symbol id="m-comment" viewBox="0 0 24 24"><path d="M21.99 2H2v16h16l4 4-.01-20zM18 14H6v-2h12v2zm0-3H6V9h12v2zm0-3H6V6h12v2z"></path>
</symbol>
<symbol id="m-forum" viewBox="0 0 24 24"><path d="M22 6h-3v9H6v3h12l4 4V6zm-5 7V2H2v15l4-4h11z"></path>
</symbol>
<symbol id="m-compress" viewBox="0 0 24 24"><path d="M4 9h16v2H4zm12-5h-3V1h-2v3H8l4 4zM8 19h3v3h2v-3h3l-4-4zm-4-7h16v2H4z"></path>
</symbol>
<symbol id="m-content_copy" viewBox="0 0 24 24"><path d="M16 1H2v16h2V3h12V1zm5 4H6v18h15V5zm-2 16H8V7h11v14z"></path>
</symbol>
<symbol id="m-credit_card" viewBox="0 0 24 24"><path d="M22 4H2.01L2 20h20V4zm-2 14H4v-6h16v6zm0-10H4V6h16v2z"></path>
</symbol>
<symbol id="m-my_location" viewBox="0 0 24 24"><path d="M12 8c-2.21 0-4 1.79-4 4s1.79 4 4 4 4-1.79 4-4-1.79-4-4-4zm8.94 3A8.994 8.994 0 0 0 13 3.06V1h-2v2.06A8.994 8.994 0 0 0 3.06 11H1v2h2.06A8.994 8.994 0 0 0 11 20.94V23h2v-2.06A8.994 8.994 0 0 0 20.94 13H23v-2h-2.06zM12 19c-3.87 0-7-3.13-7-7s3.13-7 7-7 7 3.13 7 7-3.13 7-7 7z"></path>
</symbol>
<symbol id="m-view_in_ar" viewBox="0 0 24 24"><path d="M18 1v2h3v3h2V1zm3 20h-3v2h5v-5h-2zM3 3h3V1H1v5h2zm0 15H1v5h5v-2H3zM19 7.97l-7-4.03-7 4.03v8.06l7 4.03 7-4.03V7.97zm-8 9.2-4-2.3v-4.63l4 2.33v4.6zm1-6.33L8.04 8.53 12 6.25l3.96 2.28L12 10.84zm5 4.03-4 2.3v-4.6l4-2.33v4.63z"></path>
</symbol>
<symbol id="m-chat_bubble" viewBox="0 0 24 24"><path d="M22 2H2v20l4-4h16V2z"></path>
</symbol>
<symbol id="m-arrow_right" viewBox="0 0 24 24"><path d="m10 17 5-5-5-5v10z"></path>
</symbol>
<symbol id="m-arrow_drop_down" viewBox="0 0 24 24"><path d="m7 10 5 5 5-5H7z"></path>
</symbol>
<symbol id="m-favorite" viewBox="0 0 24 24"><path d="m12 21.35-1.45-1.32C5.4 15.36 2 12.28 2 8.5 2 5.42 4.42 3 7.5 3c1.74 0 3.41.81 4.5 2.09C13.09 3.81 14.76 3 16.5 3 19.58 3 22 5.42 22 8.5c0 3.78-3.4 6.86-8.55 11.54L12 21.35z"></path>
</symbol>
<symbol id="m-notifications_off" viewBox="0 0 24 24"><path d="M12 22c1.1 0 2-.9 2-2h-4a2 2 0 0 0 2 2zm6-11c0-3.07-1.64-5.64-4.5-6.32V2.5h-3v2.18c-.24.06-.47.15-.69.23L18 13.1V11zM5.41 3.35 4 4.76l2.81 2.81C6.29 8.57 6 9.73 6 11v5l-2 2v1h14.24l1.74 1.74 1.41-1.41L5.41 3.35z"></path>
</symbol>
<symbol id="m-link" viewBox="0 0 24 24"><path d="M17 7h-4v2h4c1.65 0 3 1.35 3 3s-1.35 3-3 3h-4v2h4c2.76 0 5-2.24 5-5s-2.24-5-5-5zm-6 8H7c-1.65 0-3-1.35-3-3s1.35-3 3-3h4V7H7c-2.76 0-5 2.24-5 5s2.24 5 5 5h4v-2zm-3-4h8v2H8zm9-4h-4v2h4c1.65 0 3 1.35 3 3s-1.35 3-3 3h-4v2h4c2.76 0 5-2.24 5-5s-2.24-5-5-5zm-6 8H7c-1.65 0-3-1.35-3-3s1.35-3 3-3h4V7H7c-2.76 0-5 2.24-5 5s2.24 5 5 5h4v-2zm-3-4h8v2H8z"></path>
</symbol>
<symbol id="m-notifications_none" viewBox="0 0 24 24"><path d="M12 22c1.1 0 2-.9 2-2h-4c0 1.1.9 2 2 2zm6-6v-5c0-3.07-1.63-5.64-4.5-6.32V2.5h-3v2.18C7.64 5.36 6 7.92 6 11v5l-2 2v1h16v-1l-2-2zm-2 1H8v-6c0-2.48 1.51-4.5 4-4.5s4 2.02 4 4.5v6z"></path>
</symbol>
<symbol id="m-link" viewBox="0 0 24 24"><path d="M17 7h-4v2h4c1.65 0 3 1.35 3 3s-1.35 3-3 3h-4v2h4c2.76 0 5-2.24 5-5s-2.24-5-5-5zm-6 8H7c-1.65 0-3-1.35-3-3s1.35-3 3-3h4V7H7c-2.76 0-5 2.24-5 5s2.24 5 5 5h4v-2zm-3-4h8v2H8zm9-4h-4v2h4c1.65 0 3 1.35 3 3s-1.35 3-3 3h-4v2h4c2.76 0 5-2.24 5-5s-2.24-5-5-5zm-6 8H7c-1.65 0-3-1.35-3-3s1.35-3 3-3h4V7H7c-2.76 0-5 2.24-5 5s2.24 5 5 5h4v-2zm-3-4h8v2H8z"></path>
</symbol>
<symbol id="m-notifications" viewBox="0 0 24 24"><path d="M12 22c1.1 0 2-.9 2-2h-4a2 2 0 0 0 2 2zm6-6v-5c0-3.07-1.64-5.64-4.5-6.32V2.5h-3v2.18C7.63 5.36 6 7.92 6 11v5l-2 2v1h16v-1l-2-2z"></path>
</symbol>
<symbol id="m-favorite_border" viewBox="0 0 24 24"><path d="M16.5 3c-1.74 0-3.41.81-4.5 2.09C10.91 3.81 9.24 3 7.5 3 4.42 3 2 5.42 2 8.5c0 3.78 3.4 6.86 8.55 11.54L12 21.35l1.45-1.32C18.6 15.36 22 12.28 22 8.5 22 5.42 19.58 3 16.5 3zm-4.4 15.55-.1.1-.1-.1C7.14 14.24 4 11.39 4 8.5 4 6.5 5.5 5 7.5 5c1.54 0 3.04.99 3.57 2.36h1.87C13.46 5.99 14.96 5 16.5 5c2 0 3.5 1.5 3.5 3.5 0 2.89-3.14 5.74-7.9 10.05z"></path>
</symbol>
<symbol id="m-notifications" viewBox="0 0 24 24"><path d="M12 22c1.1 0 2-.9 2-2h-4a2 2 0 0 0 2 2zm6-6v-5c0-3.07-1.64-5.64-4.5-6.32V2.5h-3v2.18C7.63 5.36 6 7.92 6 11v5l-2 2v1h16v-1l-2-2z"></path>
</symbol>
<symbol id="m-notification_important" viewBox="0 0 24 24"><path d="M12 23c1.1 0 1.99-.89 1.99-1.99h-3.98c0 1.1.89 1.99 1.99 1.99zm7-6v-6c0-3.35-2.36-6.15-5.5-6.83V1.5h-3v2.67C7.36 4.85 5 7.65 5 11v6l-2 2v1h18v-1l-2-2zm-6-1h-2v-2h2v2zm0-4h-2V8h2v4z"></path>
</symbol>
<symbol id="m-computer" viewBox="0 0 24 24"><path d="m20 18 2-2V4H2v12l2 2H0v2h24v-2h-4zM4 6h16v10H4V6z"></path>
</symbol>
<symbol id="m-notification_important" viewBox="0 0 24 24"><path d="M12 23c1.1 0 1.99-.89 1.99-1.99h-3.98c0 1.1.89 1.99 1.99 1.99zm7-6v-6c0-3.35-2.36-6.15-5.5-6.83V1.5h-3v2.67C7.36 4.85 5 7.65 5 11v6l-2 2v1h18v-1l-2-2zm-6-1h-2v-2h2v2zm0-4h-2V8h2v4z"></path>
</symbol>
<symbol id="m-notifications" viewBox="0 0 24 24"><path d="M12 22c1.1 0 2-.9 2-2h-4a2 2 0 0 0 2 2zm6-6v-5c0-3.07-1.64-5.64-4.5-6.32V2.5h-3v2.18C7.63 5.36 6 7.92 6 11v5l-2 2v1h16v-1l-2-2z"></path>
</symbol>
<symbol id="m-notifications_off" viewBox="0 0 24 24"><path d="M12 22c1.1 0 2-.9 2-2h-4a2 2 0 0 0 2 2zm6-11c0-3.07-1.64-5.64-4.5-6.32V2.5h-3v2.18c-.24.06-.47.15-.69.23L18 13.1V11zM5.41 3.35 4 4.76l2.81 2.81C6.29 8.57 6 9.73 6 11v5l-2 2v1h14.24l1.74 1.74 1.41-1.41L5.41 3.35z"></path>
</symbol>
<symbol id="m-close_fullscreen" viewBox="0 0 24 24"><path d="M22 3.41 16.71 8.7 20 12h-8V4l3.29 3.29L20.59 2 22 3.41zM3.41 22l5.29-5.29L12 20v-8H4l3.29 3.29L2 20.59 3.41 22z"></path>
</symbol>
<symbol id="m-add_reaction" viewBox="0 0 24 24"><path d="M18 9V7h-2V2.84A9.929 9.929 0 0 0 11.99 2C6.47 2 2 6.48 2 12s4.47 10 9.99 10C17.52 22 22 17.52 22 12c0-1.05-.17-2.05-.47-3H18zm-2.5-1c.83 0 1.5.67 1.5 1.5s-.67 1.5-1.5 1.5-1.5-.67-1.5-1.5.67-1.5 1.5-1.5zm-7 0c.83 0 1.5.67 1.5 1.5S9.33 11 8.5 11 7 10.33 7 9.5 7.67 8 8.5 8zm3.5 9.5c-2.33 0-4.31-1.46-5.11-3.5h10.22c-.8 2.04-2.78 3.5-5.11 3.5zM22 3h2v2h-2v2h-2V5h-2V3h2V1h2v2z"></path>
</symbol>
<symbol id="m-open_in_full" viewBox="0 0 24 24"><path d="M21 11V3h-8l3.29 3.29-10 10L3 13v8h8l-3.29-3.29 10-10z"></path>
</symbol>
<symbol id="m-interests" viewBox="0 0 24 24"><path d="M7.02 13c-2.21 0-4 1.79-4 4s1.79 4 4 4 4-1.79 4-4-1.79-4-4-4zM13 13v8h8v-8h-8zM7 2l-5 9h10L7 2zm12.25.5c-1.06 0-1.81.56-2.25 1.17-.44-.61-1.19-1.17-2.25-1.17C13.19 2.5 12 3.78 12 5.25c0 2 2.42 3.42 5 5.75 2.58-2.33 5-3.75 5-5.75 0-1.47-1.19-2.75-2.75-2.75z"></path>
</symbol>
<symbol id="m-file_download" viewBox="0 0 24 24"><path d="M19 9h-4V3H9v6H5l7 7 7-7zM5 18v2h14v-2H5z"></path>
</symbol>
<symbol id="m-more_horiz" viewBox="0 0 24 24"><path d="M6 10c-1.1 0-2 .9-2 2s.9 2 2 2 2-.9 2-2-.9-2-2-2zm12 0c-1.1 0-2 .9-2 2s.9 2 2 2 2-.9 2-2-.9-2-2-2zm-6 0c-1.1 0-2 .9-2 2s.9 2 2 2 2-.9 2-2-.9-2-2-2z"></path>
</symbol>
<symbol id="m-more_vert" viewBox="0 0 24 24"><path d="M12 8c1.1 0 2-.9 2-2s-.9-2-2-2-2 .9-2 2 .9 2 2 2zm0 2c-1.1 0-2 .9-2 2s.9 2 2 2 2-.9 2-2-.9-2-2-2zm0 6c-1.1 0-2 .9-2 2s.9 2 2 2 2-.9 2-2-.9-2-2-2z"></path>
</symbol>
<symbol id="m-mail" viewBox="0 0 24 24"><path d="M22 4H2v16h20V4zm-2 4-8 5-8-5V6l8 5 8-5v2z"></path>
</symbol>
<symbol id="m-comment" viewBox="0 0 24 24"><path d="M21.99 2H2v16h16l4 4-.01-20zM18 14H6v-2h12v2zm0-3H6V9h12v2zm0-3H6V6h12v2z"></path>
</symbol>
<symbol id="m-sync_alt" viewBox="0 0 24 24"><path d="m18 12 4-4-4-4v3H3v2h15zM6 12l-4 4 4 4v-3h15v-2H6z"></path>
</symbol>
<symbol id="m-error" viewBox="0 0 24 24"><path d="M12 2C6.48 2 2 6.48 2 12s4.48 10 10 10 10-4.48 10-10S17.52 2 12 2zm1 15h-2v-2h2v2zm0-4h-2V7h2v6z"></path>
</symbol>
<symbol id="m-warning" viewBox="0 0 24 24"><path d="M1 21h22L12 2 1 21zm12-3h-2v-2h2v2zm0-4h-2v-4h2v4z"></path>
</symbol>
<symbol id="m-launch" viewBox="0 0 24 24"><path d="M19 19H5V5h7V3H3v18h18v-9h-2v7zM14 3v2h3.59l-9.83 9.83 1.41 1.41L19 6.41V10h2V3h-7z"></path>
</symbol>
<symbol id="m-android" viewBox="0 0 24 24"><path d="m17.6 9.48 1.84-3.18c.16-.31.04-.69-.26-.85a.637.637 0 0 0-.83.22l-1.88 3.24a11.463 11.463 0 0 0-8.94 0L5.65 5.67a.643.643 0 0 0-.87-.2c-.28.18-.37.54-.22.83L6.4 9.48A10.78 10.78 0 0 0 1 18h22a10.78 10.78 0 0 0-5.4-8.52zM7 15.25a1.25 1.25 0 1 1 0-2.5 1.25 1.25 0 0 1 0 2.5zm10 0a1.25 1.25 0 1 1 0-2.5 1.25 1.25 0 0 1 0 2.5z"></path>
</symbol>
<symbol id="m-notifications_off" viewBox="0 0 24 24"><path d="M12 22c1.1 0 2-.9 2-2h-4a2 2 0 0 0 2 2zm6-11c0-3.07-1.64-5.64-4.5-6.32V2.5h-3v2.18c-.24.06-.47.15-.69.23L18 13.1V11zM5.41 3.35 4 4.76l2.81 2.81C6.29 8.57 6 9.73 6 11v5l-2 2v1h14.24l1.74 1.74 1.41-1.41L5.41 3.35z"></path>
</symbol>
<symbol id="m-notifications" viewBox="0 0 24 24"><path d="M12 22c1.1 0 2-.9 2-2h-4a2 2 0 0 0 2 2zm6-6v-5c0-3.07-1.64-5.64-4.5-6.32V2.5h-3v2.18C7.63 5.36 6 7.92 6 11v5l-2 2v1h16v-1l-2-2z"></path>
</symbol>
<symbol id="m-insert_invitation" viewBox="0 0 24 24"><path d="M17 12h-5v5h5v-5zM16 1v2H8V1H6v2H3.01v18H21V3h-3V1h-2zm3 18H5V8h14v11z"></path>
</symbol>
<symbol id="m-assessment" viewBox="0 0 24 24"><path d="M21 3H3v18h18V3zM9 17H7v-7h2v7zm4 0h-2V7h2v10zm4 0h-2v-4h2v4z"></path>
</symbol>
<symbol id="m-check_box" viewBox="0 0 24 24"><path d="M21 3H3v18h18V3zM10 17l-5-5 1.41-1.41L10 14.17l7.59-7.59L19 8l-9 9z"></path>
</symbol>
<symbol id="m-circle" viewBox="0 0 24 24"><path d="M12 2C6.47 2 2 6.47 2 12s4.47 10 10 10 10-4.47 10-10S17.53 2 12 2z"></path>
</symbol>
<symbol id="m-content_paste" viewBox="0 0 24 24"><path d="M21 2h-6.18C14.4.84 13.3 0 12 0S9.6.84 9.18 2H3v20h18V2zm-9 0c.55 0 1 .45 1 1s-.45 1-1 1-1-.45-1-1 .45-1 1-1zm7 18H5V4h2v3h10V4h2v16z"></path>
</symbol>
<symbol id="m-schedule" viewBox="0 0 24 24"><path d="M11.99 2C6.47 2 2 6.48 2 12s4.47 10 9.99 10C17.52 22 22 17.52 22 12S17.52 2 11.99 2zM12 20c-4.42 0-8-3.58-8-8s3.58-8 8-8 8 3.58 8 8-3.58 8-8 8zm.5-13H11v6l5.25 3.15.75-1.23-4.5-2.67z"></path>
</symbol>
<symbol id="m-comment" viewBox="0 0 24 24"><path d="M21.99 2H2v16h16l4 4-.01-20zM18 14H6v-2h12v2zm0-3H6V9h12v2zm0-3H6V6h12v2z"></path>
</symbol>
<symbol id="m-forum" viewBox="0 0 24 24"><path d="M22 6h-3v9H6v3h12l4 4V6zm-5 7V2H2v15l4-4h11z"></path>
</symbol>
<symbol id="m-copyright" viewBox="0 0 24 24"><path d="M10.08 10.86c.05-.33.16-.62.3-.87s.34-.46.59-.62c.24-.15.54-.22.91-.23.23.01.44.05.63.13.2.09.38.21.52.36s.25.33.34.53.13.42.14.64h1.79c-.02-.47-.11-.9-.28-1.29s-.4-.73-.7-1.01-.66-.5-1.08-.66-.88-.23-1.39-.23c-.65 0-1.22.11-1.7.34s-.88.53-1.2.92-.56.84-.71 1.36S8 11.29 8 11.87v.27c0 .58.08 1.12.23 1.64s.39.97.71 1.35.72.69 1.2.91c.48.22 1.05.34 1.7.34.47 0 .91-.08 1.32-.23s.77-.36 1.08-.63.56-.58.74-.94.29-.74.3-1.15h-1.79c-.01.21-.06.4-.15.58s-.21.33-.36.46-.32.23-.52.3c-.19.07-.39.09-.6.1-.36-.01-.66-.08-.89-.23-.25-.16-.45-.37-.59-.62s-.25-.55-.3-.88-.08-.67-.08-1v-.27c0-.35.03-.68.08-1.01zM12 2C6.48 2 2 6.48 2 12s4.48 10 10 10 10-4.48 10-10S17.52 2 12 2zm0 18c-4.41 0-8-3.59-8-8s3.59-8 8-8 8 3.59 8 8-3.59 8-8 8z"></path>
</symbol>
<symbol id="m-credit_card" viewBox="0 0 24 24"><path d="M22 4H2.01L2 20h20V4zm-2 14H4v-6h16v6zm0-10H4V6h16v2z"></path>
</symbol>
<symbol id="m-radio_button_checked" viewBox="0 0 24 24"><path d="M12 2C6.48 2 2 6.48 2 12s4.48 10 10 10 10-4.48 10-10S17.52 2 12 2zm0 18c-4.42 0-8-3.58-8-8s3.58-8 8-8 8 3.58 8 8-3.58 8-8 8z"></path><circle cx="12" cy="12" r="5"></circle>
</symbol>
<symbol id="m-edit" viewBox="0 0 24 24"><path d="M3 17.25V21h3.75L17.81 9.94l-3.75-3.75L3 17.25zM21.41 6.34l-3.75-3.75-2.53 2.54 3.75 3.75 2.53-2.54z"></path>
</symbol>
<symbol id="m-mail" viewBox="0 0 24 24"><path d="M22 4H2v16h20V4zm-2 4-8 5-8-5V6l8 5 8-5v2z"></path>
</symbol>
<symbol id="m-visibility_off" viewBox="0 0 24 24"><path d="M12 6.5c2.76 0 5 2.24 5 5 0 .51-.1 1-.24 1.46l3.06 3.06c1.39-1.23 2.49-2.77 3.18-4.53C21.27 7.11 17 4 12 4c-1.27 0-2.49.2-3.64.57l2.17 2.17c.47-.14.96-.24 1.47-.24zM3.42 2.45 2.01 3.87l2.68 2.68A11.738 11.738 0 0 0 1 11.5C2.73 15.89 7 19 12 19c1.52 0 2.97-.3 4.31-.82l3.43 3.43 1.41-1.41L3.42 2.45zM12 16.5c-2.76 0-5-2.24-5-5 0-.77.18-1.5.49-2.14l1.57 1.57c-.03.18-.06.37-.06.57 0 1.66 1.34 3 3 3 .2 0 .38-.03.57-.07L14.14 16c-.65.32-1.37.5-2.14.5zm2.97-5.33a2.97 2.97 0 0 0-2.64-2.64l2.64 2.64z"></path>
</symbol>
<symbol id="m-visibility" viewBox="0 0 24 24"><path d="M12 4C7 4 2.73 7.11 1 11.5 2.73 15.89 7 19 12 19s9.27-3.11 11-7.5C21.27 7.11 17 4 12 4zm0 12.5c-2.76 0-5-2.24-5-5s2.24-5 5-5 5 2.24 5 5-2.24 5-5 5zm0-8c-1.66 0-3 1.34-3 3s1.34 3 3 3 3-1.34 3-3-1.34-3-3-3z"></path>
</symbol>
<symbol id="m-description" viewBox="0 0 24 24"><path d="M14 2H4v20h16V8l-6-6zm2 16H8v-2h8v2zm0-4H8v-2h8v2zm-3-5V3.5L18.5 9H13z"></path>
</symbol>
<symbol id="m-sentiment_dissatisfied" viewBox="0 0 24 24"><circle cx="15.5" cy="9.5" r="1.5"></circle><circle cx="8.5" cy="9.5" r="1.5"></circle><path d="M12 14c-2.33 0-4.32 1.45-5.12 3.5h1.67c.69-1.19 1.97-2 3.45-2s2.75.81 3.45 2h1.67c-.8-2.05-2.79-3.5-5.12-3.5zm-.01-12C6.47 2 2 6.48 2 12s4.47 10 9.99 10C17.52 22 22 17.52 22 12S17.52 2 11.99 2zM12 20c-4.42 0-8-3.58-8-8s3.58-8 8-8 8 3.58 8 8-3.58 8-8 8z"></path>
</symbol>
<symbol id="m-favorite_border" viewBox="0 0 24 24"><path d="M16.5 3c-1.74 0-3.41.81-4.5 2.09C10.91 3.81 9.24 3 7.5 3 4.42 3 2 5.42 2 8.5c0 3.78 3.4 6.86 8.55 11.54L12 21.35l1.45-1.32C18.6 15.36 22 12.28 22 8.5 22 5.42 19.58 3 16.5 3zm-4.4 15.55-.1.1-.1-.1C7.14 14.24 4 11.39 4 8.5 4 6.5 5.5 5 7.5 5c1.54 0 3.04.99 3.57 2.36h1.87C13.46 5.99 14.96 5 16.5 5c2 0 3.5 1.5 3.5 3.5 0 2.89-3.14 5.74-7.9 10.05z"></path>
</symbol>
<symbol id="m-image" viewBox="0 0 24 24"><path d="M21 21V3H3v18h18zM8.5 13.5l2.5 3.01L14.5 12l4.5 6H5l3.5-4.5z"></path>
</symbol>
<symbol id="m-list_alt" viewBox="0 0 24 24"><path d="M11 7h6v2h-6zm0 4h6v2h-6zm0 4h6v2h-6zM7 7h2v2H7zm0 4h2v2H7zm0 4h2v2H7zM3 3v18h18V3H3zm16 16H5V5h14v14z"></path>
</symbol>
<symbol id="m-sentiment_neutral" viewBox="0 0 24 24"><path d="M11.99 2C6.47 2 2 6.48 2 12s4.47 10 9.99 10C17.52 22 22 17.52 22 12S17.52 2 11.99 2zM7 9.5C7 8.67 7.67 8 8.5 8s1.5.67 1.5 1.5S9.33 11 8.5 11 7 10.33 7 9.5zm8 6H9V14h6v1.5zm.5-4.5c-.83 0-1.5-.67-1.5-1.5S14.67 8 15.5 8s1.5.67 1.5 1.5-.67 1.5-1.5 1.5z"></path>
</symbol>
<symbol id="m-dark_mode" viewBox="0 0 24 24"><path d="M12 3a9 9 0 1 0 9 9c0-.46-.04-.92-.1-1.36a5.389 5.389 0 0 1-4.4 2.26 5.403 5.403 0 0 1-3.14-9.8c-.44-.06-.9-.1-1.36-.1z"></path>
</symbol>
<symbol id="m-sentiment_satisfied" viewBox="0 0 24 24"><circle cx="15.5" cy="9.5" r="1.5"></circle><circle cx="8.5" cy="9.5" r="1.5"></circle><path d="M11.99 2C6.47 2 2 6.48 2 12s4.47 10 9.99 10C17.52 22 22 17.52 22 12S17.52 2 11.99 2zM12 20c-4.42 0-8-3.58-8-8s3.58-8 8-8 8 3.58 8 8-3.58 8-8 8zm0-4c-1.48 0-2.75-.81-3.45-2H6.88a5.495 5.495 0 0 0 10.24 0h-1.67c-.7 1.19-1.97 2-3.45 2z"></path>
</symbol>
<symbol id="m-square" viewBox="0 0 24 24"><path d="M3 3h18v18H3z"></path>
</symbol>
<symbol id="m-star_outline" viewBox="0 0 24 24"><path d="m22 9.24-7.19-.62L12 2 9.19 8.63 2 9.24l5.46 4.73L5.82 21 12 17.27 18.18 21l-1.63-7.03L22 9.24zM12 15.4l-3.76 2.27 1-4.28-3.32-2.88 4.38-.38L12 6.1l1.71 4.04 4.38.38-3.32 2.88 1 4.28L12 15.4z"></path>
</symbol>
<symbol id="m-light_mode" viewBox="0 0 24 24"><path d="M12 7c-2.76 0-5 2.24-5 5s2.24 5 5 5 5-2.24 5-5-2.24-5-5-5zm-1-6v4h2V1h-2zm0 18v4h2v-4h-2zm12-8h-4v2h4v-2zM5 11H1v2h4v-2zm11.24 6.66 2.47 2.47 1.41-1.41-2.47-2.47-1.41 1.41zM3.87 5.28l2.47 2.47 1.41-1.41-2.47-2.47-1.41 1.41zm2.47 10.96-2.47 2.47 1.41 1.41 2.47-2.47-1.41-1.41zM18.72 3.87l-2.47 2.47 1.41 1.41 2.47-2.47-1.41-1.41z"></path>
</symbol>
<symbol id="m-thumb_down" viewBox="0 0 24 24"><path d="M9.83 23 17 15.82V3H4.69L1 11.6V16h8.31l-1.12 5.38zM19 3h4v12h-4z"></path>
</symbol>
<symbol id="m-thumb_up" viewBox="0 0 24 24"><path d="M14.17 1 7 8.18V21h12.31L23 12.4V8h-8.31l1.12-5.38zM1 9h4v12H1z"></path>
</symbol>
<symbol id="m-delete" viewBox="0 0 24 24"><path d="M6 21h12V7H6v14zM19 4h-3.5l-1-1h-5l-1 1H5v2h14V4z"></path>
</symbol>
<symbol id="m-fast_rewind" viewBox="0 0 24 24"><path d="M11 18V6l-8.5 6 8.5 6zm.5-6 8.5 6V6l-8.5 6z"></path>
</symbol>
<symbol id="m-fast_forward" viewBox="0 0 24 24"><path d="m4 18 8.5-6L4 6v12zm9-12v12l8.5-6L13 6z"></path>
</symbol>
<symbol id="m-description" viewBox="0 0 24 24"><path d="M14 2H4v20h16V8l-6-6zm2 16H8v-2h8v2zm0-4H8v-2h8v2zm-3-5V3.5L18.5 9H13z"></path>
</symbol>
<symbol id="m-audio_file" viewBox="0 0 24 24"><path d="M14 2H4v20h16V8l-6-6zm2 11h-3v3.75c0 1.24-1.01 2.25-2.25 2.25S8.5 17.99 8.5 16.75s1.01-2.25 2.25-2.25c.46 0 .89.14 1.25.38V11h4v2zm-3-4V3.5L18.5 9H13z"></path>
</symbol>
<symbol id="m-insert_photo" viewBox="0 0 24 24"><path d="M21 21V3H3v18h18zM8.5 13.5l2.5 3.01L14.5 12l4.5 6H5l3.5-4.5z"></path>
</symbol>
<symbol id="m-receipt_long" viewBox="0 0 24 24"><path d="M19.5 3.5 18 2l-1.5 1.5L15 2l-1.5 1.5L12 2l-1.5 1.5L9 2 7.5 3.5 6 2v14H3v3c0 1.66 1.34 3 3 3h12c1.66 0 3-1.34 3-3V2l-1.5 1.5zM15 20H6c-.55 0-1-.45-1-1v-1h10v2zm4-1c0 .55-.45 1-1 1s-1-.45-1-1v-3H8V5h11v14z"></path><path d="M9 7h6v2H9zm0 3h6v2H9zm7-3h2v2h-2zm0 3h2v2h-2z"></path>
</symbol>
<symbol id="m-video_file" viewBox="0 0 24 24"><path d="M14 2H4v20h16V8l-6-6zm-1 7V3.5L18.5 9H13zm1 5 2-1.06v4.12L14 16v2H8v-6h6v2z"></path>
</symbol>
<symbol id="m-insert_drive_file" viewBox="0 0 24 24"><path d="M4.01 2 4 22h16V8l-6-6H4.01zM13 9V3.5L18.5 9H13z"></path>
</symbol>
<symbol id="m-filter_alt" viewBox="0 0 24 24"><path d="M3 4c2.01 2.59 7 9 7 9v7h4v-7s4.98-6.41 7-9H3z"></path>
</symbol>
<symbol id="m-flag" viewBox="0 0 24 24"><path d="M14.4 6 14 4H5v17h2v-7h5.6l.4 2h7V6h-5.6z"></path>
</symbol>
<symbol id="m-folder_open" viewBox="0 0 24 24"><path d="M22 6H12l-2-2H2v16h20V6zm-2 12H4V8h16v10z"></path>
</symbol>
<symbol id="m-folder" viewBox="0 0 24 24"><path d="M10 4H2v16h20V6H12l-2-2z"></path>
</symbol>
<symbol id="m-fast_forward" viewBox="0 0 24 24"><path d="m4 18 8.5-6L4 6v12zm9-12v12l8.5-6L13 6z"></path>
</symbol>
<symbol id="m-gavel" viewBox="0 0 24 24"><path d="M1 21h12v2H1v-2zM5.24 8.07l2.83-2.83 14.14 14.14-2.83 2.83L5.24 8.07zM12.32 1l5.66 5.66-2.83 2.83-5.66-5.66L12.32 1zM3.83 9.48l5.66 5.66-2.83 2.83L1 12.31l2.83-2.83z"></path>
</symbol>
<symbol id="m-public" viewBox="0 0 24 24"><path d="M12 2C6.48 2 2 6.48 2 12s4.48 10 10 10 10-4.48 10-10S17.52 2 12 2zm-1 17.93c-3.95-.49-7-3.85-7-7.93 0-.62.08-1.21.21-1.79L9 15v1c0 1.1.9 2 2 2v1.93zm6.9-2.54c-.26-.81-1-1.39-1.9-1.39h-1v-3c0-.55-.45-1-1-1H8v-2h2c.55 0 1-.45 1-1V7h2c1.1 0 2-.9 2-2v-.41c2.93 1.19 5 4.06 5 7.41 0 2.08-.8 3.97-2.1 5.39z"></path>
</symbol>
<symbol id="m-language" viewBox="0 0 24 24"><path d="M11.99 2C6.47 2 2 6.48 2 12s4.47 10 9.99 10C17.52 22 22 17.52 22 12S17.52 2 11.99 2zm6.93 6h-2.95a15.65 15.65 0 0 0-1.38-3.56A8.03 8.03 0 0 1 18.92 8zM12 4.04c.83 1.2 1.48 2.53 1.91 3.96h-3.82c.43-1.43 1.08-2.76 1.91-3.96zM4.26 14C4.1 13.36 4 12.69 4 12s.1-1.36.26-2h3.38c-.08.66-.14 1.32-.14 2s.06 1.34.14 2H4.26zm.82 2h2.95c.32 1.25.78 2.45 1.38 3.56A7.987 7.987 0 0 1 5.08 16zm2.95-8H5.08a7.987 7.987 0 0 1 4.33-3.56A15.65 15.65 0 0 0 8.03 8zM12 19.96c-.83-1.2-1.48-2.53-1.91-3.96h3.82c-.43 1.43-1.08 2.76-1.91 3.96zM14.34 14H9.66c-.09-.66-.16-1.32-.16-2s.07-1.35.16-2h4.68c.09.65.16 1.32.16 2s-.07 1.34-.16 2zm.25 5.56c.6-1.11 1.06-2.31 1.38-3.56h2.95a8.03 8.03 0 0 1-4.33 3.56zM16.36 14c.08-.66.14-1.32.14-2s-.06-1.34-.14-2h3.38c.16.64.26 1.31.26 2s-.1 1.36-.26 2h-3.38z"></path>
</symbol>
<symbol id="m-arrow_right_alt" viewBox="0 0 24 24"><path d="M16.01 11H4v2h12.01v3L20 12l-3.99-4v3z"></path>
</symbol>
<symbol id="m-handshake" viewBox="0 0 24 24"><path d="m10.59 5.95-7.05 7.04L.7 10.3l8.55-8.55L17.2 9.7l-1.42 1.42-5.19-5.17zm12.65 4.29-8.49-8.49-2.06 2.06 5.9 5.88-2.83 2.83-5.17-5.17-6.27 6.27 1.42 1.41 5.32-5.32.71.71-5.32 5.32 1.42 1.41 5.32-5.32.71.71-5.32 5.32 1.41 1.41 5.32-5.32.71.71L10.68 20l1.41 1.41 11.15-11.17z"></path>
</symbol>
<symbol id="m-tag" viewBox="0 0 24 24"><path d="M20 10V8h-4V4h-2v4h-4V4H8v4H4v2h4v4H4v2h4v4h2v-4h4v4h2v-4h4v-2h-4v-4h4zm-6 4h-4v-4h4v4z"></path>
</symbol>
<symbol id="m-favorite" viewBox="0 0 24 24"><path d="m12 21.35-1.45-1.32C5.4 15.36 2 12.28 2 8.5 2 5.42 4.42 3 7.5 3c1.74 0 3.41.81 4.5 2.09C13.09 3.81 14.76 3 16.5 3 19.58 3 22 5.42 22 8.5c0 3.78-3.4 6.86-8.55 11.54L12 21.35z"></path>
</symbol>
<symbol id="m-history" viewBox="0 0 24 24"><path d="M13 3a9 9 0 0 0-9 9H1l3.89 3.89.07.14L9 12H6c0-3.87 3.13-7 7-7s7 3.13 7 7-3.13 7-7 7c-1.93 0-3.68-.79-4.94-2.06l-1.42 1.42A8.954 8.954 0 0 0 13 21a9 9 0 0 0 0-18zm-1 5v5l4.25 2.52.77-1.29-3.52-2.09V8H12z"></path>
</symbol>
<symbol id="m-home" viewBox="0 0 24 24"><path d="M10 20v-6h4v6h5v-8h3L12 3 2 12h3v8h5z"></path>
</symbol>
<symbol id="m-hourglass_top" viewBox="0 0 24 24"><path d="m6 2 .01 6L10 12l-3.99 4.01L6 22h12v-6l-4-4 4-3.99V2H6zm10 14.5V20H8v-3.5l4-4 4 4z"></path>
</symbol>
<symbol id="m-badge" viewBox="0 0 24 24"><path d="M22 7h-7V2H9v5H2v15h20V7zM9 12c.83 0 1.5.67 1.5 1.5S9.83 15 9 15s-1.5-.67-1.5-1.5S8.17 12 9 12zm3 6H6v-.43c0-.6.36-1.15.92-1.39.64-.28 1.34-.43 2.08-.43s1.44.15 2.08.43c.55.24.92.78.92 1.39V18zm1-9h-2V4h2v5zm5 7.5h-4V15h4v1.5zm0-3h-4V12h4v1.5z"></path>
</symbol>
<symbol id="m-panorama" viewBox="0 0 24 24"><path d="M23 20V4H1v16h22zM8.5 12.5l2.5 3.01L14.5 11l4.5 6H5l3.5-4.5z"></path>
</symbol>
<symbol id="m-inbox" viewBox="0 0 24 24"><path d="M21 3H3.01v18H21V3zm-2 12h-4c0 1.66-1.35 3-3 3s-3-1.34-3-3H5V5h14v10z"></path>
</symbol>
<symbol id="m-info" viewBox="0 0 24 24"><path d="M12 2C6.48 2 2 6.48 2 12s4.48 10 10 10 10-4.48 10-10S17.52 2 12 2zm1 15h-2v-6h2v6zm0-8h-2V7h2v2z"></path>
</symbol>
<symbol id="m-format_italic" viewBox="0 0 24 24"><path d="M10 4v3h2.21l-3.42 8H6v3h8v-3h-2.21l3.42-8H18V4h-8z"></path>
</symbol>
<symbol id="m-key" viewBox="0 0 24 24"><path d="M21 10h-8.35A5.99 5.99 0 0 0 7 6c-3.31 0-6 2.69-6 6s2.69 6 6 6a5.99 5.99 0 0 0 5.65-4H13l2 2 2-2 2 2 4-4.04L21 10zM7 15c-1.65 0-3-1.35-3-3s1.35-3 3-3 3 1.35 3 3-1.35 3-3 3z"></path>
</symbol>
<symbol id="m-keyboard" viewBox="0 0 24 24"><path d="M22 5H2.01L2 19h20V5zM11 8h2v2h-2V8zm0 3h2v2h-2v-2zM8 8h2v2H8V8zm0 3h2v2H8v-2zm-1 2H5v-2h2v2zm0-3H5V8h2v2zm9 7H8v-2h8v2zm0-4h-2v-2h2v2zm0-3h-2V8h2v2zm3 3h-2v-2h2v2zm0-3h-2V8h2v2z"></path>
</symbol>
<symbol id="m-layers" viewBox="0 0 24 24"><path d="m11.99 18.54-7.37-5.73L3 14.07l9 7 9-7-1.63-1.27-7.38 5.74zM12 16l7.36-5.73L21 9l-9-7-9 7 1.63 1.27L12 16z"></path>
</symbol>
<symbol id="m-link" viewBox="0 0 24 24"><path d="M17 7h-4v2h4c1.65 0 3 1.35 3 3s-1.35 3-3 3h-4v2h4c2.76 0 5-2.24 5-5s-2.24-5-5-5zm-6 8H7c-1.65 0-3-1.35-3-3s1.35-3 3-3h4V7H7c-2.76 0-5 2.24-5 5s2.24 5 5 5h4v-2zm-3-4h8v2H8zm9-4h-4v2h4c1.65 0 3 1.35 3 3s-1.35 3-3 3h-4v2h4c2.76 0 5-2.24 5-5s-2.24-5-5-5zm-6 8H7c-1.65 0-3-1.35-3-3s1.35-3 3-3h4V7H7c-2.76 0-5 2.24-5 5s2.24 5 5 5h4v-2zm-3-4h8v2H8z"></path>
</symbol>
<symbol id="m-format_list_numbered" viewBox="0 0 24 24"><path d="M2 17h2v.5H3v1h1v.5H2v1h3v-4H2v1zm1-9h1V4H2v1h1v3zm-1 3h1.8L2 13.1v.9h3v-1H3.2L5 10.9V10H2v1zm5-6v2h14V5H7zm0 14h14v-2H7v2zm0-6h14v-2H7v2z"></path>
</symbol>
<symbol id="m-format_list_bulleted" viewBox="0 0 24 24"><path d="M4 10.5c-.83 0-1.5.67-1.5 1.5s.67 1.5 1.5 1.5 1.5-.67 1.5-1.5-.67-1.5-1.5-1.5zm0-6c-.83 0-1.5.67-1.5 1.5S3.17 7.5 4 7.5 5.5 6.83 5.5 6 4.83 4.5 4 4.5zm0 12c-.83 0-1.5.68-1.5 1.5s.68 1.5 1.5 1.5 1.5-.68 1.5-1.5-.67-1.5-1.5-1.5zM7 19h14v-2H7v2zm0-6h14v-2H7v2zm0-8v2h14V5H7z"></path>
</symbol>
<symbol id="m-list" viewBox="0 0 24 24"><path d="M3 13h2v-2H3v2zm0 4h2v-2H3v2zm0-8h2V7H3v2zm4 4h14v-2H7v2zm0 4h14v-2H7v2zM7 7v2h14V7H7zm-4 6h2v-2H3v2zm0 4h2v-2H3v2zm0-8h2V7H3v2zm4 4h14v-2H7v2zm0 4h14v-2H7v2zM7 7v2h14V7H7z"></path>
</symbol>
<symbol id="m-lock" viewBox="0 0 24 24"><path d="M20 8h-3V6.21c0-2.61-1.91-4.94-4.51-5.19A5.008 5.008 0 0 0 7 6v2H4v14h16V8zm-8 9c-1.1 0-2-.9-2-2s.9-2 2-2 2 .9 2 2-.9 2-2 2zM9 8V6c0-1.66 1.34-3 3-3s3 1.34 3 3v2H9z"></path>
</symbol>
<symbol id="m-auto_fix_normal" viewBox="0 0 24 24"><path d="m20 7 .94-2.06L23 4l-2.06-.94L20 1l-.94 2.06L17 4l2.06.94zm-1.59 2.83-4.24-4.24L1.59 18.17l4.24 4.24L18.41 9.83zm-4.2 1.38L12.8 9.8l1.38-1.38 1.41 1.41-1.38 1.38z"></path>
</symbol>
<symbol id="m-location_on" viewBox="0 0 24 24"><path d="M12 2C8.13 2 5 5.13 5 9c0 5.25 7 13 7 13s7-7.75 7-13c0-3.87-3.13-7-7-7zm0 9.5a2.5 2.5 0 0 1 0-5 2.5 2.5 0 0 1 0 5z"></path>
</symbol>
<symbol id="m-mic_off" viewBox="0 0 24 24"><path d="M15 10.6V5c0-1.66-1.34-3-3-3-1.54 0-2.79 1.16-2.96 2.65L15 10.6zm4 .4h-1.7c0 .58-.1 1.13-.27 1.64l1.27 1.27c.44-.88.7-1.87.7-2.91zM4.41 2.86 3 4.27l6 6V11c0 1.66 1.34 3 3 3 .23 0 .44-.03.65-.08l1.66 1.66c-.71.33-1.5.52-2.31.52-2.76 0-5.3-2.1-5.3-5.1H5c0 3.41 2.72 6.23 6 6.72V21h2v-3.28a7.13 7.13 0 0 0 2.55-.9l4.2 4.2 1.41-1.41L4.41 2.86z"></path>
</symbol>
<symbol id="m-remove_circle" viewBox="0 0 24 24"><path d="M12 2C6.48 2 2 6.48 2 12s4.48 10 10 10 10-4.48 10-10S17.52 2 12 2zm5 11H7v-2h10v2z"></path>
</symbol>
<symbol id="m-remove" viewBox="0 0 24 24"><path d="M19 13H5v-2h14v2z"></path>
</symbol>
<symbol id="m-phone_iphone" viewBox="0 0 24 24"><path d="M18 1H5v22h13V1zm-6.5 21c-.83 0-1.5-.67-1.5-1.5s.67-1.5 1.5-1.5 1.5.67 1.5 1.5-.67 1.5-1.5 1.5zm4.5-4H7V4h9v14z"></path>
</symbol>
<symbol id="m-dark_mode" viewBox="0 0 24 24"><path d="M12 3a9 9 0 1 0 9 9c0-.46-.04-.92-.1-1.36a5.389 5.389 0 0 1-4.4 2.26 5.403 5.403 0 0 1-3.14-9.8c-.44-.06-.9-.1-1.36-.1z"></path>
</symbol>
<symbol id="m-schedule" viewBox="0 0 24 24"><path d="M11.99 2C6.47 2 2 6.48 2 12s4.47 10 9.99 10C17.52 22 22 17.52 22 12S17.52 2 11.99 2zM12 20c-4.42 0-8-3.58-8-8s3.58-8 8-8 8 3.58 8 8-3.58 8-8 8zm.5-13H11v6l5.25 3.15.75-1.23-4.5-2.67z"></path>
</symbol>
<symbol id="m-format_quote" viewBox="0 0 24 24"><path d="M5 17h3l2-4V7H4v6h3l-2 4zm10 0h3l2-4V7h-6v6h3l-2 4z"></path>
</symbol>
<symbol id="m-edit" viewBox="0 0 24 24"><path d="M3 17.25V21h3.75L17.81 9.94l-3.75-3.75L3 17.25zM21.41 6.34l-3.75-3.75-2.53 2.54 3.75 3.75 2.53-2.54z"></path>
</symbol>
<symbol id="m-emoji_events" viewBox="0 0 24 24"><path d="M19 5h-2V3H7v2H5c-1.1 0-2 .9-2 2v1c0 2.55 1.92 4.63 4.39 4.94A5.01 5.01 0 0 0 11 15.9V19H7v2h10v-2h-4v-3.1a5.01 5.01 0 0 0 3.61-2.96C19.08 12.63 21 10.55 21 8V7c0-1.1-.9-2-2-2zM5 8V7h2v3.82C5.84 10.4 5 9.3 5 8zm14 0c0 1.3-.84 2.4-2 2.82V7h2v1z"></path>
</symbol>
<symbol id="m-group" viewBox="0 0 24 24"><path d="M16 11c1.66 0 2.99-1.34 2.99-3S17.66 5 16 5s-3 1.34-3 3 1.34 3 3 3zm-8 0c1.66 0 2.99-1.34 2.99-3S9.66 5 8 5 5 6.34 5 8s1.34 3 3 3zm0 2c-2.33 0-7 1.17-7 3.5V19h14v-2.5c0-2.33-4.67-3.5-7-3.5zm8 0c-.29 0-.62.02-.97.05 1.16.84 1.97 1.97 1.97 3.45V19h6v-2.5c0-2.33-4.67-3.5-7-3.5z"></path>
</symbol>
<symbol id="m-groups" viewBox="0 0 24 24"><path d="M12 12.75c1.63 0 3.07.39 4.24.9 1.08.48 1.76 1.56 1.76 2.73V18H6v-1.61c0-1.18.68-2.26 1.76-2.73 1.17-.52 2.61-.91 4.24-.91zM4 13c1.1 0 2-.9 2-2s-.9-2-2-2-2 .9-2 2 .9 2 2 2zm1.13 1.1c-.37-.06-.74-.1-1.13-.1-.99 0-1.93.21-2.78.58A2.01 2.01 0 0 0 0 16.43V18h4.5v-1.61c0-.83.23-1.61.63-2.29zM20 13c1.1 0 2-.9 2-2s-.9-2-2-2-2 .9-2 2 .9 2 2 2zm4 3.43c0-.81-.48-1.53-1.22-1.85A6.95 6.95 0 0 0 20 14c-.39 0-.76.04-1.13.1.4.68.63 1.46.63 2.29V18H24v-1.57zM12 6c1.66 0 3 1.34 3 3s-1.34 3-3 3-3-1.34-3-3 1.34-3 3-3z"></path>
</symbol>
<symbol id="m-mail" viewBox="0 0 24 24"><path d="M22 4H2v16h20V4zm-2 4-8 5-8-5V6l8 5 8-5v2z"></path>
</symbol>
<symbol id="m-arrow_right_alt" viewBox="0 0 24 24"><path d="M16.01 11H4v2h12.01v3L20 12l-3.99-4v3z"></path>
</symbol>
<symbol id="m-favorite" viewBox="0 0 24 24"><path d="m12 21.35-1.45-1.32C5.4 15.36 2 12.28 2 8.5 2 5.42 4.42 3 7.5 3c1.74 0 3.41.81 4.5 2.09C13.09 3.81 14.76 3 16.5 3 19.58 3 22 5.42 22 8.5c0 3.78-3.4 6.86-8.55 11.54L12 21.35z"></path>
</symbol>
<symbol id="m-favorite" viewBox="0 0 24 24"><path d="m12 21.35-1.45-1.32C5.4 15.36 2 12.28 2 8.5 2 5.42 4.42 3 7.5 3c1.74 0 3.41.81 4.5 2.09C13.09 3.81 14.76 3 16.5 3 19.58 3 22 5.42 22 8.5c0 3.78-3.4 6.86-8.55 11.54L12 21.35z"></path>
</symbol>
<symbol id="m-favorite" viewBox="0 0 24 24"><path d="m12 21.35-1.45-1.32C5.4 15.36 2 12.28 2 8.5 2 5.42 4.42 3 7.5 3c1.74 0 3.41.81 4.5 2.09C13.09 3.81 14.76 3 16.5 3 19.58 3 22 5.42 22 8.5c0 3.78-3.4 6.86-8.55 11.54L12 21.35z"></path>
</symbol>
<symbol id="m-favorite" viewBox="0 0 24 24"><path d="m12 21.35-1.45-1.32C5.4 15.36 2 12.28 2 8.5 2 5.42 4.42 3 7.5 3c1.74 0 3.41.81 4.5 2.09C13.09 3.81 14.76 3 16.5 3 19.58 3 22 5.42 22 8.5c0 3.78-3.4 6.86-8.55 11.54L12 21.35z"></path>
</symbol>
<symbol id="m-link" viewBox="0 0 24 24"><path d="M17 7h-4v2h4c1.65 0 3 1.35 3 3s-1.35 3-3 3h-4v2h4c2.76 0 5-2.24 5-5s-2.24-5-5-5zm-6 8H7c-1.65 0-3-1.35-3-3s1.35-3 3-3h4V7H7c-2.76 0-5 2.24-5 5s2.24 5 5 5h4v-2zm-3-4h8v2H8zm9-4h-4v2h4c1.65 0 3 1.35 3 3s-1.35 3-3 3h-4v2h4c2.76 0 5-2.24 5-5s-2.24-5-5-5zm-6 8H7c-1.65 0-3-1.35-3-3s1.35-3 3-3h4V7H7c-2.76 0-5 2.24-5 5s2.24 5 5 5h4v-2zm-3-4h8v2H8z"></path>
</symbol>
<symbol id="m-person_add" viewBox="0 0 24 24"><path d="M15 12c2.21 0 4-1.79 4-4s-1.79-4-4-4-4 1.79-4 4 1.79 4 4 4zm-9-2V7H4v3H1v2h3v3h2v-3h3v-2H6zm9 4c-2.67 0-8 1.34-8 4v2h16v-2c0-2.66-5.33-4-8-4z"></path>
</symbol>
<symbol id="m-groups" viewBox="0 0 24 24"><path d="M12 12.75c1.63 0 3.07.39 4.24.9 1.08.48 1.76 1.56 1.76 2.73V18H6v-1.61c0-1.18.68-2.26 1.76-2.73 1.17-.52 2.61-.91 4.24-.91zM4 13c1.1 0 2-.9 2-2s-.9-2-2-2-2 .9-2 2 .9 2 2 2zm1.13 1.1c-.37-.06-.74-.1-1.13-.1-.99 0-1.93.21-2.78.58A2.01 2.01 0 0 0 0 16.43V18h4.5v-1.61c0-.83.23-1.61.63-2.29zM20 13c1.1 0 2-.9 2-2s-.9-2-2-2-2 .9-2 2 .9 2 2 2zm4 3.43c0-.81-.48-1.53-1.22-1.85A6.95 6.95 0 0 0 20 14c-.39 0-.76.04-1.13.1.4.68.63 1.46.63 2.29V18H24v-1.57zM12 6c1.66 0 3 1.34 3 3s-1.34 3-3 3-3-1.34-3-3 1.34-3 3-3z"></path>
</symbol>
<symbol id="m-alternate_email" viewBox="0 0 24 24"><path d="M12 2C6.48 2 2 6.48 2 12s4.48 10 10 10h5v-2h-5c-4.34 0-8-3.66-8-8s3.66-8 8-8 8 3.66 8 8v1.43c0 .79-.71 1.57-1.5 1.57s-1.5-.78-1.5-1.57V12c0-2.76-2.24-5-5-5s-5 2.24-5 5 2.24 5 5 5c1.38 0 2.64-.56 3.54-1.47.65.89 1.77 1.47 2.96 1.47 1.97 0 3.5-1.6 3.5-3.57V12c0-5.52-4.48-10-10-10zm0 13c-1.66 0-3-1.34-3-3s1.34-3 3-3 3 1.34 3 3-1.34 3-3 3z"></path>
</symbol>
<symbol id="m-logout" viewBox="0 0 24 24"><path d="M5 5h7V3H3v18h9v-2H5z"></path><path d="m21 12-4-4v3H9v2h8v3z"></path>
</symbol>
<symbol id="m-check" viewBox="0 0 24 24"><path d="M9 16.17 4.83 12l-1.42 1.41L9 19 21 7l-1.41-1.41L9 16.17z"></path>
</symbol>
<symbol id="m-notification_important" viewBox="0 0 24 24"><path d="M12 23c1.1 0 1.99-.89 1.99-1.99h-3.98c0 1.1.89 1.99 1.99 1.99zm7-6v-6c0-3.35-2.36-6.15-5.5-6.83V1.5h-3v2.67C7.36 4.85 5 7.65 5 11v6l-2 2v1h18v-1l-2-2zm-6-1h-2v-2h2v2zm0-4h-2V8h2v4z"></path>
</symbol>
<symbol id="m-mail" viewBox="0 0 24 24"><path d="M22 4H2v16h20V4zm-2 4-8 5-8-5V6l8 5 8-5v2z"></path>
</symbol>
<symbol id="m-format_quote" viewBox="0 0 24 24"><path d="M5 17h3l2-4V7H4v6h3l-2 4zm10 0h3l2-4V7h-6v6h3l-2 4z"></path>
</symbol>
<symbol id="m-notifications" viewBox="0 0 24 24"><path d="M12 22c1.1 0 2-.9 2-2h-4a2 2 0 0 0 2 2zm6-6v-5c0-3.07-1.64-5.64-4.5-6.32V2.5h-3v2.18C7.63 5.36 6 7.92 6 11v5l-2 2v1h16v-1l-2-2z"></path>
</symbol>
<symbol id="m-reply" viewBox="0 0 24 24"><path d="M10 9V5l-7 7 7 7v-4.1c5 0 8.5 1.6 11 5.1-1-5-4-10-11-11z"></path>
</symbol>
<symbol id="m-schedule" viewBox="0 0 24 24"><path d="M11.99 2C6.47 2 2 6.48 2 12s4.47 10 9.99 10C17.52 22 22 17.52 22 12S17.52 2 11.99 2zM12 20c-4.42 0-8-3.58-8-8s3.58-8 8-8 8 3.58 8 8-3.58 8-8 8zm.5-13H11v6l5.25 3.15.75-1.23-4.5-2.67z"></path>
</symbol>
<symbol id="m-add" viewBox="0 0 24 24"><path d="M19 13h-6v6h-2v-6H5v-2h6V5h2v6h6v2z"></path>
</symbol>
<symbol id="m-notifications" viewBox="0 0 24 24"><path d="M12 22c1.1 0 2-.9 2-2h-4a2 2 0 0 0 2 2zm6-6v-5c0-3.07-1.64-5.64-4.5-6.32V2.5h-3v2.18C7.63 5.36 6 7.92 6 11v5l-2 2v1h16v-1l-2-2z"></path>
</symbol>
<symbol id="m-brush" viewBox="0 0 24 24"><path d="M7 14c-1.66 0-3 1.34-3 3 0 1.31-1.16 2-2 2 .92 1.22 2.49 2 4 2 2.21 0 4-1.79 4-4 0-1.66-1.34-3-3-3zm14.41-8.66-2.75-2.75L9 12.25 11.75 15l9.66-9.66z"></path>
</symbol>
<symbol id="m-send" viewBox="0 0 24 24"><path d="M2.01 21 23 12 2.01 3 2 10l15 2-15 2 .01 7z"></path>
</symbol>
<symbol id="m-pause" viewBox="0 0 24 24"><path d="M6 19h4V5H6v14zm8-14v14h4V5h-4z"></path>
</symbol>
<symbol id="m-edit" viewBox="0 0 24 24"><path d="M3 17.25V21h3.75L17.81 9.94l-3.75-3.75L3 17.25zM21.41 6.34l-3.75-3.75-2.53 2.54 3.75 3.75 2.53-2.54z"></path>
</symbol>
<symbol id="m-play_arrow" viewBox="0 0 24 24"><path d="M8 5v14l11-7L8 5z"></path>
</symbol>
<symbol id="m-power" viewBox="0 0 24 24"><path d="M16 7V3h-2v4h-4V3H8v4H6v7.5L9.5 18v3h5v-3l3.5-3.51V7h-2z"></path>
</symbol>
<symbol id="m-add_circle" viewBox="0 0 24 24"><path d="M12 2C6.48 2 2 6.48 2 12s4.48 10 10 10 10-4.48 10-10S17.52 2 12 2zm5 11h-4v4h-2v-4H7v-2h4V7h2v4h4v2z"></path>
</symbol>
<symbol id="m-add_box" viewBox="0 0 24 24"><path d="M21 3H3v18h18V3zm-4 10h-4v4h-2v-4H7v-2h4V7h2v4h4v2z"></path>
</symbol>
<symbol id="m-add" viewBox="0 0 24 24"><path d="M19 13h-6v6h-2v-6H5v-2h6V5h2v6h6v2z"></path>
</symbol>
<symbol id="m-power_settings_new" viewBox="0 0 24 24"><path d="M13 3h-2v10h2V3zm4.83 2.17-1.42 1.42A6.92 6.92 0 0 1 19 12c0 3.87-3.13 7-7 7A6.995 6.995 0 0 1 7.58 6.58L6.17 5.17A8.932 8.932 0 0 0 3 12a9 9 0 0 0 18 0c0-2.74-1.23-5.18-3.17-6.83z"></path>
</symbol>
<symbol id="m-extension" viewBox="0 0 24 24"><path d="M20.36 11H19V5h-6V3.64c0-1.31-.94-2.5-2.24-2.63A2.5 2.5 0 0 0 8 3.5V5H2.01v5.8H3.4c1.31 0 2.5.88 2.75 2.16.33 1.72-.98 3.24-2.65 3.24H2V22h5.8v-1.4c0-1.31.88-2.5 2.16-2.75 1.72-.33 3.24.98 3.24 2.65V22H19v-6h1.5a2.5 2.5 0 0 0 2.49-2.76c-.13-1.3-1.33-2.24-2.63-2.24z"></path>
</symbol>
<symbol id="m-help_outline" viewBox="0 0 24 24"><path d="M11 18h2v-2h-2v2zm1-16C6.48 2 2 6.48 2 12s4.48 10 10 10 10-4.48 10-10S17.52 2 12 2zm0 18c-4.41 0-8-3.59-8-8s3.59-8 8-8 8 3.59 8 8-3.59 8-8 8zm0-14c-2.21 0-4 1.79-4 4h2c0-1.1.9-2 2-2s2 .9 2 2c0 2-3 1.75-3 5h2c0-2.25 3-2.5 3-5 0-2.21-1.79-4-4-4z"></path>
</symbol>
<symbol id="m-question_mark" viewBox="0 0 24 24"><path d="M11.07 12.85c.77-1.39 2.25-2.21 3.11-3.44.91-1.29.4-3.7-2.18-3.7-1.69 0-2.52 1.28-2.87 2.34L6.54 6.96C7.25 4.83 9.18 3 11.99 3c2.35 0 3.96 1.07 4.78 2.41.7 1.15 1.11 3.3.03 4.9-1.2 1.77-2.35 2.31-2.97 3.45-.25.46-.35.76-.35 2.24h-2.89c-.01-.78-.13-2.05.48-3.15zM14 20c0 1.1-.9 2-2 2s-2-.9-2-2 .9-2 2-2 2 .9 2 2z"></path>
</symbol>
<symbol id="m-format_quote" viewBox="0 0 24 24"><path d="M5 17h3l2-4V7H4v6h3l-2 4zm10 0h3l2-4V7h-6v6h3l-2 4z"></path>
</symbol>
<symbol id="m-shuffle" viewBox="0 0 24 24"><path d="M10.59 9.17 5.41 4 4 5.41l5.17 5.17 1.42-1.41zM14.5 4l2.04 2.04L4 18.59 5.41 20 17.96 7.46 20 9.5V4h-5.5zm.33 9.41-1.41 1.41 3.13 3.13L14.5 20H20v-5.5l-2.04 2.04-3.13-3.13z"></path>
</symbol>
<symbol id="m-redo" viewBox="0 0 24 24"><path d="M18.4 10.6C16.55 8.99 14.15 8 11.5 8c-4.65 0-8.58 3.03-9.96 7.22L3.9 16a8.002 8.002 0 0 1 7.6-5.5c1.95 0 3.73.72 5.12 1.88L13 16h9V7l-3.6 3.6z"></path>
</symbol>
<symbol id="m-reply" viewBox="0 0 24 24"><path d="M10 9V5l-7 7 7 7v-4.1c5 0 8.5 1.6 11 5.1-1-5-4-10-11-11z"></path>
</symbol>
<symbol id="m-rocket_launch" viewBox="0 0 24 24"><path d="M9.19 6.35c-2.04 2.29-3.44 5.58-3.57 5.89L2 10.69l4.81-4.81 2.38.47zM11.17 17s3.74-1.55 5.89-3.7c5.4-5.4 4.5-9.62 4.21-10.57-.95-.3-5.17-1.19-10.57 4.21C8.55 9.09 7 12.83 7 12.83L11.17 17zm6.48-2.19c-2.29 2.04-5.58 3.44-5.89 3.57L13.31 22l4.81-4.81-.47-2.38zM9 18c0 .83-.34 1.58-.88 2.12C6.94 21.3 2 22 2 22s.7-4.94 1.88-6.12A2.996 2.996 0 0 1 9 18zm4-9c0-1.1.9-2 2-2s2 .9 2 2-.9 2-2 2-2-.9-2-2z"></path>
</symbol>
<symbol id="m-save" viewBox="0 0 24 24"><path d="M17 3H3v18h18V7l-4-4zm-5 16c-1.66 0-3-1.34-3-3s1.34-3 3-3 3 1.34 3 3-1.34 3-3 3zm3-10H5V5h10v4z"></path>
</symbol>
<symbol id="m-search" viewBox="0 0 24 24"><path d="M15.5 14h-.79l-.28-.27A6.471 6.471 0 0 0 16 9.5 6.5 6.5 0 1 0 9.5 16c1.61 0 3.09-.59 4.23-1.57l.27.28v.79l5 4.99L20.49 19l-4.99-5zm-6 0C7.01 14 5 11.99 5 9.5S7.01 5 9.5 5 14 7.01 14 9.5 11.99 14 9.5 14z"></path>
</symbol>
<symbol id="m-share" viewBox="0 0 24 24"><path d="M18 16.08c-.76 0-1.44.3-1.96.77L8.91 12.7c.05-.23.09-.46.09-.7s-.04-.47-.09-.7l7.05-4.11c.54.5 1.25.81 2.04.81 1.66 0 3-1.34 3-3s-1.34-3-3-3-3 1.34-3 3c0 .24.04.47.09.7L8.04 9.81C7.5 9.31 6.79 9 6 9c-1.66 0-3 1.34-3 3s1.34 3 3 3c.79 0 1.5-.31 2.04-.81l7.12 4.16c-.05.21-.08.43-.08.65 0 1.61 1.31 2.92 2.92 2.92s2.92-1.31 2.92-2.92-1.31-2.92-2.92-2.92z"></path>
</symbol>
<symbol id="m-share" viewBox="0 0 24 24"><path d="M18 16.08c-.76 0-1.44.3-1.96.77L8.91 12.7c.05-.23.09-.46.09-.7s-.04-.47-.09-.7l7.05-4.11c.54.5 1.25.81 2.04.81 1.66 0 3-1.34 3-3s-1.34-3-3-3-3 1.34-3 3c0 .24.04.47.09.7L8.04 9.81C7.5 9.31 6.79 9 6 9c-1.66 0-3 1.34-3 3s1.34 3 3 3c.79 0 1.5-.31 2.04-.81l7.12 4.16c-.05.21-.08.43-.08.65 0 1.61 1.31 2.92 2.92 2.92s2.92-1.31 2.92-2.92-1.31-2.92-2.92-2.92z"></path>
</symbol>
<symbol id="m-security" viewBox="0 0 24 24"><path d="M12 1 3 5v6c0 5.55 3.84 10.74 9 12 5.16-1.26 9-6.45 9-12V5l-9-4zm0 10.99h7c-.53 4.12-3.28 7.79-7 8.94V12H5V6.3l7-3.11v8.8z"></path>
</symbol>
<symbol id="m-shield" viewBox="0 0 24 24"><path d="M12 2 4 5v6.09c0 5.05 3.41 9.76 8 10.91 4.59-1.15 8-5.86 8-10.91V5l-8-3z"></path>
</symbol>
<symbol id="m-login" viewBox="0 0 24 24"><path d="M11 7 9.6 8.4l2.6 2.6H2v2h10.2l-2.6 2.6L11 17l5-5-5-5zm9 12h-8v2h10V3H12v2h8v14z"></path>
</symbol>
<symbol id="m-logout" viewBox="0 0 24 24"><path d="M5 5h7V3H3v18h9v-2H5z"></path><path d="m21 12-4-4v3H9v2h8v3z"></path>
</symbol>
<symbol id="m-signal_cellular_alt" viewBox="0 0 24 24"><path d="M17 4h3v16h-3V4zM5 14h3v6H5v-6zm6-5h3v11h-3V9z"></path>
</symbol>
<symbol id="m-tune" viewBox="0 0 24 24"><path d="M3 17v2h6v-2H3zM3 5v2h10V5H3zm10 16v-2h8v-2h-8v-2h-2v6h2zM7 9v2H3v2h4v2h2V9H7zm14 4v-2H11v2h10zm-6-4h2V7h4V5h-4V3h-2v6z"></path>
</symbol>
<symbol id="m-tune" viewBox="0 0 24 24"><path d="M3 17v2h6v-2H3zM3 5v2h10V5H3zm10 16v-2h8v-2h-8v-2h-2v6h2zM7 9v2H3v2h4v2h2V9H7zm14 4v-2H11v2h10zm-6-4h2V7h4V5h-4V3h-2v6z"></path>
</symbol>
<symbol id="m-mood" viewBox="0 0 24 24"><path d="M11.99 2C6.47 2 2 6.48 2 12s4.47 10 9.99 10C17.52 22 22 17.52 22 12S17.52 2 11.99 2zM12 20c-4.42 0-8-3.58-8-8s3.58-8 8-8 8 3.58 8 8-3.58 8-8 8zm3.5-9c.83 0 1.5-.67 1.5-1.5S16.33 8 15.5 8 14 8.67 14 9.5s.67 1.5 1.5 1.5zm-7 0c.83 0 1.5-.67 1.5-1.5S9.33 8 8.5 8 7 8.67 7 9.5 7.67 11 8.5 11zm3.5 6.5c2.33 0 4.31-1.46 5.11-3.5H6.89c.8 2.04 2.78 3.5 5.11 3.5z"></path>
</symbol>
<symbol id="m-sort" viewBox="0 0 24 24"><path d="M3 18h6v-2H3v2zM3 6v2h18V6H3zm0 7h12v-2H3v2z"></path>
</symbol>
<symbol id="m-pending" viewBox="0 0 24 24"><path d="M12 2C6.48 2 2 6.48 2 12s4.48 10 10 10 10-4.48 10-10S17.52 2 12 2zM7 13.5c-.83 0-1.5-.67-1.5-1.5s.67-1.5 1.5-1.5 1.5.67 1.5 1.5-.67 1.5-1.5 1.5zm5 0c-.83 0-1.5-.67-1.5-1.5s.67-1.5 1.5-1.5 1.5.67 1.5 1.5-.67 1.5-1.5 1.5zm5 0c-.83 0-1.5-.67-1.5-1.5s.67-1.5 1.5-1.5 1.5.67 1.5 1.5-.67 1.5-1.5 1.5z"></path>
</symbol>
<symbol id="m-square" viewBox="0 0 24 24"><path d="M3 3h18v18H3z"></path>
</symbol>
<symbol id="m-approval" viewBox="0 0 24 24"><path d="M4 14v8h16v-8H4zm14 4H6v-2h12v2zM12 2C9.24 2 7 4.24 7 7l5 7 5-7c0-2.76-2.24-5-5-5z"></path>
</symbol>
<symbol id="m-star" viewBox="0 0 24 24"><path d="M12 17.27 18.18 21l-1.64-7.03L22 9.24l-7.19-.61L12 2 9.19 8.63 2 9.24l5.46 4.73L5.82 21 12 17.27z"></path>
</symbol>
<symbol id="m-skip_previous" viewBox="0 0 24 24"><path d="M6 6h2v12H6V6zm3.5 6 8.5 6V6l-8.5 6z"></path>
</symbol>
<symbol id="m-skip_next" viewBox="0 0 24 24"><path d="m6 18 8.5-6L6 6v12zM16 6v12h2V6h-2z"></path>
</symbol>
<symbol id="m-clear_all" viewBox="0 0 24 24"><path d="M5 13h14v-2H5v2zm-2 4h14v-2H3v2zM7 7v2h14V7H7z"></path>
</symbol>
<symbol id="m-light_mode" viewBox="0 0 24 24"><path d="M12 7c-2.76 0-5 2.24-5 5s2.24 5 5 5 5-2.24 5-5-2.24-5-5-5zm-1-6v4h2V1h-2zm0 18v4h2v-4h-2zm12-8h-4v2h4v-2zM5 11H1v2h4v-2zm11.24 6.66 2.47 2.47 1.41-1.41-2.47-2.47-1.41 1.41zM3.87 5.28l2.47 2.47 1.41-1.41-2.47-2.47-1.41 1.41zm2.47 10.96-2.47 2.47 1.41 1.41 2.47-2.47-1.41-1.41zM18.72 3.87l-2.47 2.47 1.41 1.41 2.47-2.47-1.41-1.41z"></path>
</symbol>
<symbol id="m-sync" viewBox="0 0 24 24"><path d="M12 4V1L8 5l4 4V6c3.31 0 6 2.69 6 6 0 1.01-.25 1.97-.7 2.8l1.46 1.46A7.93 7.93 0 0 0 20 12c0-4.42-3.58-8-8-8zm0 14c-3.31 0-6-2.69-6-6 0-1.01.25-1.97.7-2.8L5.24 7.74A7.93 7.93 0 0 0 4 12c0 4.42 3.58 8 8 8v3l4-4-4-4v3z"></path>
</symbol>
<symbol id="m-sync" viewBox="0 0 24 24"><path d="M12 4V1L8 5l4 4V6c3.31 0 6 2.69 6 6 0 1.01-.25 1.97-.7 2.8l1.46 1.46A7.93 7.93 0 0 0 20 12c0-4.42-3.58-8-8-8zm0 14c-3.31 0-6-2.69-6-6 0-1.01.25-1.97.7-2.8L5.24 7.74A7.93 7.93 0 0 0 4 12c0 4.42 3.58 8 8 8v3l4-4-4-4v3z"></path>
</symbol>
<symbol id="m-table_chart" viewBox="0 0 24 24"><path d="M10 10.02h5V21h-5V10.02zM17 21h5V10h-5v11zm5-18H3v5h19V3zM3 21h5V10H3v11z"></path>
</symbol>
<symbol id="m-sell" viewBox="0 0 24 24"><path d="M22.83 12.83 12 2H2v10l10.83 10.83 10-10zM6.5 8C5.67 8 5 7.33 5 6.5S5.67 5 6.5 5 8 5.67 8 6.5 7.33 8 6.5 8z"></path>
</symbol>
<symbol id="m-sell" viewBox="0 0 24 24"><path d="M22.83 12.83 12 2H2v10l10.83 10.83 10-10zM6.5 8C5.67 8 5 7.33 5 6.5S5.67 5 6.5 5 8 5.67 8 6.5 7.33 8 6.5 8z"></path>
</symbol>
<symbol id="m-checklist" viewBox="0 0 24 24"><path d="M22 7h-9v2h9V7zm0 8h-9v2h9v-2zM5.54 11 2 7.46l1.41-1.41 2.12 2.12 4.24-4.24 1.41 1.41L5.54 11zm0 8L2 15.46l1.41-1.41 2.12 2.12 4.24-4.24 1.41 1.41L5.54 19z"></path>
</symbol>
<symbol id="m-device_thermostat" viewBox="0 0 24 24"><path d="M15 13V5c0-1.66-1.34-3-3-3S9 3.34 9 5v8c-1.21.91-2 2.37-2 4 0 2.76 2.24 5 5 5s5-2.24 5-5c0-1.63-.79-3.09-2-4zm-4-2V5c0-.55.45-1 1-1s1 .45 1 1v1h-1v1h1v2h-1v1h1v1h-2z"></path>
</symbol>
<symbol id="m-thumb_down" viewBox="0 0 24 24"><path d="M9.83 23 17 15.82V3H4.69L1 11.6V16h8.31l-1.12 5.38zM19 3h4v12h-4z"></path>
</symbol>
<symbol id="m-thumb_up" viewBox="0 0 24 24"><path d="M14.17 1 7 8.18V21h12.31L23 12.4V8h-8.31l1.12-5.38zM1 9h4v12H1z"></path>
</symbol>
<symbol id="m-push_pin" viewBox="0 0 24 24"><path fill-rule="evenodd" d="M16 9V4h2V2H6v2h2v5c0 1.66-1.34 3-3 3v2h5.97v7l1 1 1-1v-7H19v-2c-1.66 0-3-1.34-3-3z"></path>
</symbol>
<symbol id="m-highlight_off" viewBox="0 0 24 24"><path d="M14.59 8 12 10.59 9.41 8 8 9.41 10.59 12 8 14.59 9.41 16 12 13.41 14.59 16 16 14.59 13.41 12 16 9.41 14.59 8zM12 2C6.47 2 2 6.47 2 12s4.47 10 10 10 10-4.47 10-10S17.53 2 12 2zm0 18c-4.41 0-8-3.59-8-8s3.59-8 8-8 8 3.59 8 8-3.59 8-8 8z"></path>
</symbol>
<symbol id="m-close" viewBox="0 0 24 24"><path d="M19 6.41 17.59 5 12 10.59 6.41 5 5 6.41 10.59 12 5 17.59 6.41 19 12 13.41 17.59 19 19 17.59 13.41 12 19 6.41z"></path>
</symbol>
<symbol id="m-toggle_off" viewBox="0 0 24 24"><path d="M17 7H7c-2.76 0-5 2.24-5 5s2.24 5 5 5h10c2.76 0 5-2.24 5-5s-2.24-5-5-5zM7 15c-1.66 0-3-1.34-3-3s1.34-3 3-3 3 1.34 3 3-1.34 3-3 3z"></path>
</symbol>
<symbol id="m-toggle_on" viewBox="0 0 24 24"><path d="M17 7H7c-2.76 0-5 2.24-5 5s2.24 5 5 5h10c2.76 0 5-2.24 5-5s-2.24-5-5-5zm0 8c-1.66 0-3-1.34-3-3s1.34-3 3-3 3 1.34 3 3-1.34 3-3 3z"></path>
</symbol>
<symbol id="m-delete" viewBox="0 0 24 24"><path d="M6 21h12V7H6v14zM19 4h-3.5l-1-1h-5l-1 1H5v2h14V4z"></path>
</symbol>
<symbol id="m-undo" viewBox="0 0 24 24"><path d="M12.5 8c-2.65 0-5.05.99-6.9 2.6L2 7v9h9l-3.62-3.62c1.39-1.16 3.16-1.88 5.12-1.88 3.54 0 6.55 2.31 7.6 5.5l2.37-.78C21.08 11.03 17.15 8 12.5 8z"></path>
</symbol>
<symbol id="m-link_off" viewBox="0 0 24 24"><path d="M14.39 11 16 12.61V11zM17 7h-4v1.9h4c1.71 0 3.1 1.39 3.1 3.1 0 1.27-.77 2.37-1.87 2.84l1.4 1.4A4.986 4.986 0 0 0 22 12c0-2.76-2.24-5-5-5zM2 4.27l3.11 3.11A4.991 4.991 0 0 0 2 12c0 2.76 2.24 5 5 5h4v-1.9H7c-1.71 0-3.1-1.39-3.1-3.1 0-1.59 1.21-2.9 2.76-3.07L8.73 11H8v2h2.73L13 15.27V17h1.73l4.01 4.01 1.41-1.41L3.41 2.86 2 4.27z"></path>
</symbol>
<symbol id="m-lock_open" viewBox="0 0 24 24"><path d="M20 8h-3V6.21c0-2.61-1.91-4.94-4.51-5.19A5.008 5.008 0 0 0 7 6h2c0-1.13.6-2.24 1.64-2.7C12.85 2.31 15 3.9 15 6v2H4v14h16V8zm-2 12H6V10h12v10zm-6-3c1.1 0 2-.9 2-2s-.9-2-2-2-2 .9-2 2 .9 2 2 2z"></path>
</symbol>
<symbol id="m-lock_open" viewBox="0 0 24 24"><path d="M20 8h-3V6.21c0-2.61-1.91-4.94-4.51-5.19A5.008 5.008 0 0 0 7 6h2c0-1.13.6-2.24 1.64-2.7C12.85 2.31 15 3.9 15 6v2H4v14h16V8zm-2 12H6V10h12v10zm-6-3c1.1 0 2-.9 2-2s-.9-2-2-2-2 .9-2 2 .9 2 2 2z"></path>
</symbol>
<symbol id="m-file_upload" viewBox="0 0 24 24"><path d="M5 10h4v6h6v-6h4l-7-7-7 7zm0 8v2h14v-2H5z"></path>
</symbol>
<symbol id="m-manage_accounts" viewBox="0 0 24 24"><path d="M10.67 13.02c-.22-.01-.44-.02-.67-.02-2.42 0-4.68.67-6.61 1.82-.88.52-1.39 1.5-1.39 2.53V20h9.26a6.963 6.963 0 0 1-.59-6.98z"></path><circle cx="10" cy="8" r="4"></circle><path d="M20.75 16c0-.22-.03-.42-.06-.63l1.14-1.01-1-1.73-1.45.49c-.32-.27-.68-.48-1.08-.63L18 11h-2l-.3 1.49c-.4.15-.76.36-1.08.63l-1.45-.49-1 1.73 1.14 1.01c-.03.21-.06.41-.06.63s.03.42.06.63l-1.14 1.01 1 1.73 1.45-.49c.32.27.68.48 1.08.63L16 21h2l.3-1.49c.4-.15.76-.36 1.08-.63l1.45.49 1-1.73-1.14-1.01c.03-.21.06-.41.06-.63zM17 18c-1.1 0-2-.9-2-2s.9-2 2-2 2 .9 2 2-.9 2-2 2z"></path>
</symbol>
<symbol id="m-manage_accounts" viewBox="0 0 24 24"><path d="M10.67 13.02c-.22-.01-.44-.02-.67-.02-2.42 0-4.68.67-6.61 1.82-.88.52-1.39 1.5-1.39 2.53V20h9.26a6.963 6.963 0 0 1-.59-6.98z"></path><circle cx="10" cy="8" r="4"></circle><path d="M20.75 16c0-.22-.03-.42-.06-.63l1.14-1.01-1-1.73-1.45.49c-.32-.27-.68-.48-1.08-.63L18 11h-2l-.3 1.49c-.4.15-.76.36-1.08.63l-1.45-.49-1 1.73 1.14 1.01c-.03.21-.06.41-.06.63s.03.42.06.63l-1.14 1.01 1 1.73 1.45-.49c.32.27.68.48 1.08.63L16 21h2l.3-1.49c.4-.15.76-.36 1.08-.63l1.45.49 1-1.73-1.14-1.01c.03-.21.06-.41.06-.63zM17 18c-1.1 0-2-.9-2-2s.9-2 2-2 2 .9 2 2-.9 2-2 2z"></path>
</symbol>
<symbol id="m-people" viewBox="0 0 24 24"><path d="M16 11c1.66 0 2.99-1.34 2.99-3S17.66 5 16 5s-3 1.34-3 3 1.34 3 3 3zm-8 0c1.66 0 2.99-1.34 2.99-3S9.66 5 8 5 5 6.34 5 8s1.34 3 3 3zm0 2c-2.33 0-7 1.17-7 3.5V19h14v-2.5c0-2.33-4.67-3.5-7-3.5zm8 0c-.29 0-.62.02-.97.05 1.16.84 1.97 1.97 1.97 3.45V19h6v-2.5c0-2.33-4.67-3.5-7-3.5z"></path>
</symbol>
<symbol id="m-person_add" viewBox="0 0 24 24"><path d="M15 12c2.21 0 4-1.79 4-4s-1.79-4-4-4-4 1.79-4 4 1.79 4 4 4zm-9-2V7H4v3H1v2h3v3h2v-3h3v-2H6zm9 4c-2.67 0-8 1.34-8 4v2h16v-2c0-2.66-5.33-4-8-4z"></path>
</symbol>
<symbol id="m-person_off" viewBox="0 0 24 24"><path d="M8.65 5.82a3.999 3.999 0 1 1 5.53 5.53L8.65 5.82zM20 17.17c-.02-1.1-.63-2.11-1.61-2.62-.54-.28-1.13-.54-1.77-.76L20 17.17zm1.19 4.02L2.81 2.81 1.39 4.22l8.89 8.89c-1.81.23-3.39.79-4.67 1.45A2.97 2.97 0 0 0 4 17.22V20h13.17l2.61 2.61 1.41-1.42z"></path>
</symbol>
<symbol id="m-admin_panel_settings" viewBox="0 0 24 24"><path d="M17 11c.34 0 .67.04 1 .09V6.27L10.5 3 3 6.27v4.91c0 4.54 3.2 8.79 7.5 9.82.55-.13 1.08-.32 1.6-.55-.69-.98-1.1-2.17-1.1-3.45 0-3.31 2.69-6 6-6z"></path><path d="M17 13c-2.21 0-4 1.79-4 4s1.79 4 4 4 4-1.79 4-4-1.79-4-4-4zm0 1.38c.62 0 1.12.51 1.12 1.12s-.51 1.12-1.12 1.12-1.12-.51-1.12-1.12.5-1.12 1.12-1.12zm0 5.37c-.93 0-1.74-.46-2.24-1.17.05-.72 1.51-1.08 2.24-1.08s2.19.36 2.24 1.08c-.5.71-1.31 1.17-2.24 1.17z"></path>
</symbol>
<symbol id="m-person_remove" viewBox="0 0 24 24"><path d="M14 8c0-2.21-1.79-4-4-4S6 5.79 6 8s1.79 4 4 4 4-1.79 4-4zm3 2v2h6v-2h-6zM2 18v2h16v-2c0-2.66-5.33-4-8-4s-8 1.34-8 4z"></path>
</symbol>
<symbol id="m-person" viewBox="0 0 24 24"><path d="M12 12c2.21 0 4-1.79 4-4s-1.79-4-4-4-4 1.79-4 4 1.79 4 4 4zm0 2c-2.67 0-8 1.34-8 4v2h16v-2c0-2.66-5.33-4-8-4z"></path>
</symbol>
<symbol id="m-group" viewBox="0 0 24 24"><path d="M16 11c1.66 0 2.99-1.34 2.99-3S17.66 5 16 5s-3 1.34-3 3 1.34 3 3 3zm-8 0c1.66 0 2.99-1.34 2.99-3S9.66 5 8 5 5 6.34 5 8s1.34 3 3 3zm0 2c-2.33 0-7 1.17-7 3.5V19h14v-2.5c0-2.33-4.67-3.5-7-3.5zm8 0c-.29 0-.62.02-.97.05 1.16.84 1.97 1.97 1.97 3.45V19h6v-2.5c0-2.33-4.67-3.5-7-3.5z"></path>
</symbol>
<symbol id="m-build" viewBox="0 0 24 24"><path d="M12.09 2.91C10.08.9 7.07.49 4.65 1.67l4.34 4.34-3 3-4.34-4.34C.48 7.1.89 10.09 2.9 12.1a6.507 6.507 0 0 0 6.89 1.48l9.82 9.82 3.71-3.71-9.78-9.79c.92-2.34.44-5.1-1.45-6.99z"></path>
</symbol>
</svg>